<?xml version="1.0" encoding="UTF-8"?>
<svg id="Layer_1" data-name="Layer 1" xmlns="http://www.w3.org/2000/svg" xmlns:xlink="http://www.w3.org/1999/xlink" viewBox="0 0 1693.41 1024">
  <defs>
    <style>
      .cls-1 {
        fill: url(#linear-gradient-3);
      }

      .cls-2 {
        fill: url(#linear-gradient-2);
      }

      .cls-3 {
        fill: url(#linear-gradient);
      }

      .cls-4 {
        fill: #ba9a72;
      }
    </style>
    <linearGradient id="linear-gradient" x1="850.77" y1="259.42" x2="850.77" y2="867.41" gradientUnits="userSpaceOnUse">
      <stop offset=".3" stop-color="#ba9a72"/>
      <stop offset=".37" stop-color="#b9a081"/>
      <stop offset=".5" stop-color="#b7b2aa"/>
      <stop offset=".61" stop-color="#b5c4d2"/>
      <stop offset=".79" stop-color="#b3c2d0"/>
      <stop offset=".86" stop-color="#acbccb"/>
      <stop offset=".9" stop-color="#a0b2c2"/>
      <stop offset=".94" stop-color="#8fa3b5"/>
      <stop offset=".97" stop-color="#7990a4"/>
      <stop offset="1" stop-color="#5f7990"/>
      <stop offset="1" stop-color="#5c778e"/>
    </linearGradient>
    <linearGradient id="linear-gradient-2" x1="1057.12" y1="400.67" x2="1057.12" y2="835.76" gradientUnits="userSpaceOnUse">
      <stop offset=".29" stop-color="#ba9a72"/>
      <stop offset=".36" stop-color="#ba9c77"/>
      <stop offset=".45" stop-color="#baa386"/>
      <stop offset=".55" stop-color="#baaf9f"/>
      <stop offset=".65" stop-color="#bac0c2"/>
      <stop offset=".73" stop-color="#bad0e3"/>
      <stop offset=".84" stop-color="#b8cee1"/>
      <stop offset=".88" stop-color="#b1c7db"/>
      <stop offset=".91" stop-color="#a5bcd0"/>
      <stop offset=".93" stop-color="#94acc1"/>
      <stop offset=".95" stop-color="#7e97ad"/>
      <stop offset=".96" stop-color="#647e95"/>
      <stop offset=".97" stop-color="#5c778e"/>
    </linearGradient>
    <linearGradient id="linear-gradient-3" x1="1034.75" y1="751.14" x2="1034.75" y2="932.21" gradientUnits="userSpaceOnUse">
      <stop offset=".1" stop-color="#ba9a72"/>
      <stop offset=".16" stop-color="#baa488"/>
      <stop offset=".29" stop-color="#bab7af"/>
      <stop offset=".41" stop-color="#bac4cb"/>
      <stop offset=".51" stop-color="#bacddc"/>
      <stop offset=".58" stop-color="#bad0e3"/>
      <stop offset=".77" stop-color="#b8cee1"/>
      <stop offset=".84" stop-color="#b1c7db"/>
      <stop offset=".89" stop-color="#a5bcd0"/>
      <stop offset=".93" stop-color="#94acc1"/>
      <stop offset=".96" stop-color="#7e97ad"/>
      <stop offset=".99" stop-color="#647e95"/>
      <stop offset="1" stop-color="#5c778e"/>
    </linearGradient>
  </defs>
  <path class="cls-3" d="M735.06,523.59c-6.93-1.94-11.57,8.33-6.35,11.08,13.88,7.33,69.77,7.63,108.52-29.14,46.68-44.3,38.36-120.13,7.66-173.57-.56-.98.21-2.17,1.34-2.07,10.57.9,21.15,8.28,28.44,15.36,2.32,2.25,4.36,5.8,6.67,8.26.59.63.64,2.97,2.3.76-7.26-17.3-17.56-31.09-36.75-35.25-3.12-.68-8.28.36-10.96-1.55-2.06-1.47-8.77-12.18-11.34-15.16-7.92-9.19-16.23-16.75-24.95-25.09-1.15-1.1-5.88-2.43-1.52-3.42,14.32-3.22,45.78-19.97,58.45-12.47,1.23.73,10.17,14.97,11.57,17.43,40.34,71.06,52.98,176.88-11.87,237.67-12.8,12-27,21.06-44.42,24.07-24.18,4.18-24.37,14.19-24.55,16.11-1.73,18.72,23.95,37.46,39.41,47.58,50.98,33.37,106.43,35.35,164.27,43.73,107.94,15.64,159.82,115.55,143.53,218.24,0,.02,0,.05-.01.07-.26,1.63-2.64,1.52-2.75-.13-2.61-38.52-13.65-75.41-38.15-105.81-41.59-51.61-102.18-72.04-166.49-78.51-72.38-7.28-143.42-11.63-213.25-34.75-89.71-29.69-156.43-95.91-149.22-196.75,6.19-86.58,86.54-131.21,159.6-156.28.1-.03.2-.06.3-.07,3.9-.5,11.18,3.8,14.76,5.67,72.59,38.07,100.05,136.03,58.5,206.84-3.73,6.36-7.33,13.19-14.53,15.47-68.9,21.89-144.79-46.51-92-109.52"/>
  <path class="cls-4" d="M708.15,285.96c1.29.32,1.41,2.12.18,2.63l-43.34,17.7c-90.82,42.44-134.61,127.29-99.81,225.23,25.65,72.18,85.49,110.58,155.81,132.19l35.42,9.03c1.62.41,1.26,2.82-.41,2.73-25.64-1.26-51.91-3.98-76.84-8.93-95.67-18.99-160.65-68.67-193.24-161.76-14.73-42.09-21.42-101.77-7.02-144.56,16.74-49.75,84.1-74.84,131.93-80.07,32.52-3.56,65.62-2.13,97.32,5.82Z"/>
  <path class="cls-2" d="M1007.55,531.65c28.51,28.88,79.17,9.48,88.35-28.45,16.03-66.21-60.48-111.7-115.62-77.62-49.96,30.87-51.01,108.95-9.61,147.45,52.44,48.74,138.37,41.93,183.94,102.06,29.64,39.11,34.3,84.59,30.58,132.4-.39,5.07-1.74,22.54-3.95,25.79-1.77,2.6-6.14,3.3-8.73,1.4-4.48-3.3-.7-13.37-.32-18.19,6.26-78.87-6.83-143.78-86.01-175.98-61.78-25.12-139.11-37.32-155.71-115.29-18.53-87.06,68.34-159.45,144.63-106.63,60.95,42.2,37.59,145.92-38.28,139.28-67-5.86-72.18-101.25-11.12-104.85,26.56-1.57,51.26,22.96,41.98,49.97-.98,2.85-6.5,11.67-8.94,13.06-2.89,1.64-9.25,1.91-10.35-1.75-1.97-6.56,2-6.72,4.23-10.36,16.92-27.6-21.08-49.65-43.92-31.92-19,14.76-17.31,43.29-1.17,59.63Z"/>
  <path class="cls-4" d="M494.85,318.24c-1.06,1.04-2.81-.13-2.26-1.51,15.95-39.97,44.17-75.08,80.29-98.55,23.74-15.42,32.17-16.47,60.5-11.87,43.57,7.07,86.62,27.69,123.88,50.65.67.41.87,1.3.43,1.95-3.57,5.3-24.38,20.25-28.72,20.93-.16.03-.32,0-.48-.03-10.32-2.39-20.7-6.53-31.07-8.55-35.99-6.98-82.18-5.76-117.86,2.6-31.47,7.37-61.62,21.75-84.72,44.37Z"/>
  <path class="cls-4" d="M756.14,190.72c8.16,17.79,13.98,37.47,7.59,56.73-.27.81-1.22,1.17-1.98.77l-46.14-25.05s-.07-.03-.1-.05c-31.01-13.9-64.15-24.86-98.15-28.02-.79-.07-1.41-.79-1.24-1.56.19-.89,1.14-.33,2.28-.79,29.33-11.68,95.98-14.66,126.23-6.67,3.72.98,7.43,2.23,10.87,3.97.29.14.51.38.65.68Z"/>
  <path class="cls-1" d="M1079.43,930.76c-.79-1.47-1.75-17.89-2.19-22.3-6.3-62.74-36.41-112.31-90.77-144.23-2.96-1.74-6.99-.46-7.16-6.7-.35-12.83,14.98-2.86,19.8.06,47.98,29.03,81.3,82.54,88.94,138.06.88,6.37,3.99,30.4.61,34.32-1.95,2.26-7.9,3.29-9.23.8Z"/>
  <path class="cls-4" d="M722.55,770.36c-7.65,7.06-12.02,16.01-7.54,26.33,6.07,13.98,24.66,12.98,36.99,9.61,5.83-1.59,19.99-11.68,22.78-2.33,2.64,8.84-15.44,12.84-21.8,14.31-17.31,4-38.19,3.5-47.98-13.59-14.75-25.77,7.5-45.57,28.82-56.56,50.16-25.85,131.77-28.01,186.19-16.45,5.47,1.16,31.87,7.62,34.24,10.76,3.1,4.11.58,10.63-4.53,10.64-2.87,0-19.29-6.36-24.51-7.6-50.9-12.05-161.94-12.75-202.66,24.86Z"/>
  <path class="cls-4" d="M834.07,333.3c.58-.12,1.17.18,1.46.7,26.89,49.27,32.81,111.71-4.36,157.47-1,1.23-10,11.11-15.27,15.53-1.14.96-2.77-.31-2.15-1.66,2.02-4.37,4.47-8.62,6.21-13.08,11.87-30.56,14.4-67.43,6.75-99.28-3.27-13.6-8.72-25.78-14-38.6-.19-.46-.12-.98.19-1.38,5.8-7.44,11.37-17.76,21.17-19.71Z"/>
  <path class="cls-4" d="M848.5,248.55c.65.99-.14,2.26-1.32,2.14-17.5-1.74-40.94,19.76-55.41,18.31-4.36-.44-13.5-9.49-18.39-12.84-.55-.38-.75-1.08-.49-1.69,8.34-19.79,2.61-39.73-5.42-58.51-.48-1.11.62-2.27,1.75-1.84,25.09,9.36,48.49,24.01,67.98,42.38,1.19,1.12,8.71,8.14,11.29,12.06Z"/>
  <path class="cls-4" d="M826.34,322.35c-8.55,3.88-14.35,11.52-19.55,19.05-.54.78-1.68.79-2.25.03-8.22-11.06-17.21-21.43-27.26-30.88-.05-.05-.1-.09-.16-.13l-32.29-22.77c-.79-.56-.78-1.73.01-2.28,8.2-5.63,17.04-11.88,21.96-20.59.26-.47.77-.75,1.3-.71h.05c.26.02.51.11.72.27,21.86,15.8,41.54,34.48,57.99,55.84.18.24.28.53.29.82v.05c.01.56-.32,1.06-.83,1.3Z"/>
</svg>