<?xml version="1.0" encoding="UTF-8"?>
<svg xmlns="http://www.w3.org/2000/svg" preserveAspectRatio="none" viewBox="0 555 1920 140">
  <defs>
    <style>
      .cls-1 {
        fill: #8a603c;
      }
    </style>
  </defs>
  <g>
    <path class="cls-1" d="M1892.84,710.76c4.2.49,6.92.7,10.27.93l16.36,1.15c.83-1.17,2.98-2.27,7.61-2.93-2.09,1.1-4.48,2.49-1.76,2.95,5.55.95,10.83,1.65,17.88,2.22-5.66-1.64-10.99-2.57-11.81-4.42,3.53.54,7.21,1.04,9.78,1.52M1903.05,715c-7.91-.58-18.05-.34-24.95-1.2-11.98-1.5-25.48-1.67-38.87-2.38-9.97-.53-18.76-1.02-29.74-1.17l-119.75-1.59c-19.01-.25-36.96-1.03-56.04-.55-5.81.15-10.53.07-16.45-.06-18.54-.41-36.92-.1-55.79-.07-7.69,0-14.1.3-21.59.61-9.65.39-21.05-.22-31.02.08-10.19.31-19.75.12-29.74.19-25.69.19-49.7.31-75.17-.56-29.63-1.02-60.18-1.38-90.12-.78-12.7.26-22.98.2-35.63.02-41.01-.58-93.46-.89-133.66.2-11.32.3-21.87,1.49-33.45.88-4.44-.23-13.33.33-17.77.2-8.97-.26-16.46-.29-24.97-.08-10.54.27-20.51.19-31.03.45l-36.69.89c13.83-.34-145.96,2.19-134.3,2.14-19.66.08-38.48.39-57.7.95l-44.03,1.27c-19.35.56-38.65,1.12-57.29,2.15-12.26.68-23.22,1.26-35.6,1.76l-49.24,1.97-40.39,1.66-24.99,1.67c-8.76.58-16.66.7-25.29,1.38-24.48,1.91-35.21,1.26-61.34,4.1l-9.54,1.04c-3.76.41-8.44,1-12.19,1.35-9.23.86-18.37,1.58-27.23,2.54-11.58,1.25-23.44,1.64-35.87,2.32l-26.09,1.42-26.76,1.08c-5.81.23-13.67,1.7-18.89,1.84-13.47.38-18.89,1.8-27.83,3.18-10.47,1.61-27.23,1.98-35.38,4.36-2.02.15-2.32.17-1.79.2l5.13.27c1.37.07,3.2.34,5.89.84-12.6.68-17.55-.09-31.56.66l1.37.34c10.88.04,20.09.37,29.5,1.06,2.53.25,5.22.43,1.59.53l-40.59-.67-11.62,1.42-2.72.33c-.73.09.76.54,1.58.61,9.81.8,32.85,1.11,44.04,1.11h3.56c.64,0-.18.19-.63.28-4.84.94-5.88-.27-16.03.43,5.1,1.1,9.53,1.74,15.18,2.51,4.48.61-7.86,1.04.9,2.96l1.76.39,2.18.48-1.95.34c-14.61-2.86-5.25-3.12-20.18-4.56-6.46-.62-14.4-1.7-22.13-1.47l-15.72.47c7.09.5,12.29.77,22.73,1.19l-7.62.44c-3.69.09-6.46.22-2.44.35l6.17.2c.78.02.48.08.09.4-11.15.38-21.89-.45-33.87,1.03l35.23,1.37-4.34.4-4.62-.12c-.56-.01-1.85.32-2.17.4l-1.8.47-24.33-.16c-.33,0-2.27.06-2.81.08l-3.74.14c-12.94.47,25.6.66,29.72.89l15.31.87c-11.43-.13-36.85.23-41.7.87l-2.66.35-5.69.34-2.56.15c-1.14.16-2.69.39-2.2.32.61-.09,1.64.61.81.67l-15.6,1.1c2.02.24,4.71.68,5.08.97.43.34-4,.82-6.53.97-.66.03.68.3,1.38.32l5.79.14c-10.24.39-17.36.69-26.57,1.25-.36.2-.72.4-.22.42l3.98.09-1.65.32c-13.58,1.1-8.11-.6-13.8.36-.88.15.42.53,1.46.81l1.43.38c.88.23,1.13.54,4.21.54h3.32s5.26,0,5.26,0c3.42.12,3.8.15-.09.13l-13.3.98c-1.05.08-3.86.7-4.04.73-5.74-.22-11.08-.35-17.39-.4l-5.13-.04c-1.11,0,.06-.34.93-.86l11.13-.84c3-1.09,6.79-1.95,12.23-2.6l19.75-2.33c2.88-1.34,5.3-2.29,11.46-3.21,8.29-1.24-7.41-1.98,22-3.43-1.36-.33-4.16-.92-3.41-1.2.69-.26,3.93-.86,2.74-.98l-5.54-.55c-.33-.03-2.47.07-3.36.09l-17.62.44c-.32,0-2.65.26-2.88.29l-4.81.75c-7.75.47,2.67-1.94,14.98-2.07l19.69-.21c.75,0,3.18-.2,3.07-.3l-.76-.69c1.42-.45,5.86-.78,11.6-1.06,1.98-.1-1.46-1.17-3.58-1.17l-13.93-.03c2.49-.57,7.29-1.51,10.56-1.5l29.53.12c11.46-1.15-29.97-.56-26.6-.64l-46.4,1.16c-1.39.03-4.55-.03-5.17-.04-.59,0-.67-.23-.1-.25l3.7-.14,23.72-.67c4.38-.12,7.34-.47,10.28-1.11l16.14.05,1.65-.78-20.62.12-.21-.46c-.03-.06.07-.53.32-.55l6.67-.75c1.63-.18,3.12-.23,3.08-.39l-.24-.96c-.18-.7-5.5-1.57-9.09-1.78-4.66-.28-13.99.31-17.63.63l-2.65.23c-.66.06-1.68.15-2.04.19l-2.4.26-6.94.76c-.43.05-2.82.06-3.26.05-.47,0-.08-.12.15-.2,6.04-2.01,21.27-2.22,28.96-3.08,24.32-2.71,8.14-1.14,36.37-3.35l3.08-.24c.53-.04.71-.2.13-.21s-3.44-.01-4.25.02l-20.93.92,2.78.68c-14.8,1.08-29.45,1.8-45.83,1.88,7.87-1.07,18.66-1.21,27.37-1.99,13.97-1.26,6.5-1.9,41.72-2.91.52-1.15,1.78-1.83,6.05-2.33l-2.8-.37c-3.1-.41,3.25-1.23,5.76-1.48l11.43-1.14c.22-.07,1.15-.3,2.29-.59l-12.62.48-19.98-.53c1.16-.4,2.56-.84,4.14-.83l7.07.06c-1.34.27-3.25.58-2.51.64s3.41.28,4.22.27l6.22-.08c5.78-1.05,12.06-1.75,19.55-2.4-6.79-.45-9.61.32-14.85.52l-3.09.03c-.56,0-.83-.29-.46-.37l1.8-.39,2.54-.55-12.96-.58c-11.72-.53-11.55.2-11.01-.33,1.27-1.23,4.41.23,12.47-2.52l-2.97.07-6.26.15c-1.59.04-2.12-.59-3.32-1.21l-3.46.61c-.56.1-1.82-.3-1.3-.41,8.24-1.89,21.16-1.48,22.51-2.69,2.57-2.3,5.17-1.05,16.5-2.38-6.47-.74-13.97-.43-15.92.73-10.91.65-12.61-.11-22.01.97l4.42.29,4.01.27c1.53-.19-.95.12-2.87.36-22.69,1.74-36.2,1.57-60.2,3.46,4.1-.67,8.38-1.68,13.21-2.05l23.48-1.79c-8.99-1.14-15.34.06-21.41.89-1.08-.01-2.52.02-2.58-.05l-.4-.52,5.82-.9-3.96-.05-1.63.11c-.3-.22-1.1-.58-.54-.62l3.94-.3,12.29-.95c-3.02-.44-6.84-.41-10.68-.11l-3.58.28c-.59.05.19-.16.9-.32l16.24-1.46c10.2-1.91,20.88-3.33,34.11-4.4,24.55-2,4.21-1.53,24.55-2.48l-36.22,4.59c-5.01.63-9.25,1.58-13.2,2.4l-2.22.35c-.67.1-1.52.41-1.9.57-3.98,1.67,17.47-2.16,18.77-2.27l19.42-1.75c4.05-.37,8.62-.85,12.41-1.32,25.49-3.19,24.06-2.09,44.52-5.15l7.42-2.46c3.57-1.18,12.4-1.62,17.62-2.56l10.82-1.95c4.6-.83,10.61-1.41,17.09-2.17,2.57-.89-15.49-2.21-9.31-1.91,9.66.47,6.4,1.47,15.8,1.74l3.75-.28c.6-.04.61.47.02.52l-8.95.67c-13.16.98-22.32,2.68-30.48,4.73-6.45,1.61-12.99,1.31-16.67,3.05l11.65-.23c1.51-.28.91-.17-.25.05l-2.4.26c-.5.05-.9.44-.28.41l3.47-.14,26.85-1.19c-1.58-.33-3.17-.57-2.68-.67l3.28-.67c4.74-.97,9.88-1.84,15.89-2.5l36.93-4.04c16.58-1.82,25.09-1.81,37.11-2.86,28.3-2.49,32.95-2.35,62.85-3.8,13.67-.66,26.18-1.49,39.26-2.46,7.14-.53,14.83-.84,22.96-.61l-73.94,4.66c-7.81.49-15.68.9-23.76,1.3-7,.34-13.58,1.07-20.04,1.47-11.6.7-24.78.75-35.43,2.01l-22.2,2.63-24.66,3.01c-3.49.43-6.46.95-10.27,1.67-3.38.24-.47.28,2.36.33l35.89-1.54c16.07-.69,32.23-1.78,48.52-2.12,12.56-.27,22.61-.43,34.27-1.4,17.32-1.43,35.07-2.5,53.46-3.54,4.1-.23,5.93-.1,9.92.02,10.87.34,22.75-.46,33.99-.57,29.49-.29,56.77-1.68,85.37-2.79,7.95-.31,15.81,0,23.58-.73,26.31-2.5,43.41-.86,59.73-1.8,7.69-.44,14.7-.96,22.78-1.21l43.38-1.37c11.82-.37,23.27.24,37.32.23-10.51.79-22.23,1.07-34.91,1.4-26.07.68-51.37,1.54-77.84,1.78-19.99.18-36.26-.37-54.56,1.87-10.33,1.26-22.33.99-33.34,1.53-15.58.77-30.27,1.4-46.38,1.98l-28.47,1.02c-21.83.78-84.14,2.34-104.21,4.32-12.56,1.24-25.28,1.11-38.92,1.61-6.88.25-15.62.92-22.87,1.36-17.53,1.07-31.91,3.05-47.51,4.75l3.8-1.12-1.18-.14c-16.5.7-23.8,2.15-35.94,4.06l7.39-.13c-4.43.7-19.05,4.27-12.95,3.71l3.48-.32,8.87-.82,21.33-1.88,2.3-.06c.6-.02,3.05-.14,2.55-.08s-2.48.37-3,.42l-19.92,1.87c-10.94,1.02-29.32,2.77-37.14,4.12-.43.07-2.76.23-2.2.27,8.18.5,9.5.44,20.98-.57.73-.06,2.79.16,2.14.23l-3.77.37-11.87,1.17c-1.79,1.19-28.39,2.07-28.5,1.96l.75.78c.35.36-.18,1.18-1.31,1.52-1,.3-4.55.51-7.09.54l-19.19.21c4.42,1.88,13.19.92,20.51.46l42.8-2.67c21.88-1.36,25.83-3.47,33.65-1.81,6.4-.42,13.13-.6,19.92-.72,9.91-.18,19.49-1.23,28.73-1.96,21.71-1.71,27.89-.84,52.24-4.05.69-.09,3.5-.39,2.79-.47l-4.34-.46,13.15-1.13c8.94-1.8,19.73-3.16,33.91-3.11l-11.07.84c-4.73.36-8.3.77-12.72,1.48,11.88.41,23.62-1.51,38.19-1.02-16.59,1.64-33.64.67-44.2,2.16-5.29.74-9.18,2.16-14.62,2.75-14.41,1.56-21.71,1.99-38.11,2.9-10.15.56-18.77,1.52-28.38,2.42-24.41,2.3-25.37.56-34.9,1.33s-18.52,1.46-28.23,2.13c-14.35.99-29.18,1.4-42.2,3.16l11.99.36-2.87.62c28.19,1.26,26.37-.87,45.6-1.17l13.8-1.12c-24.36,3.66-65.6,3.51-88.77,7.96,15.88,1.83,16.08-.04,35.23-1.31,6.48-.43,11.98-.73,16.13-1.77,1.16-.29,3.47-1.09,5.18-1.07l6.41.06c-6.85.53-11.78.91-12.47,2.24,10.95-.12,19.91-.83,29.35-1.69,11.63-1.06,25.45-1.31,38.26-1.96l27.47-1.38c9.37-.47,21.07-2.68,36.32-2.45-7.68,1.95-41.83,4.14-57.79,4.88-16.37.76-33.15,1.12-49.22,2.1l-40.19,2.45-6.3,1.63-28.97,1.51,5.29.41-11.2.94-16.03,1.16,7.6.64-10.17.56c10.38.62,18.13-.65,26.88-1.49l33.58-3.2,3.12-.29c.63-.06.65.35.87.47s-2.3.11-3.46.14c-4.29.67-8.84,1.71-13.58,2.24l-16.56,1.86c26.87-.92,17.15-2.24,43.21-4.47,5.75-.49,11.86-1.22,17.63-1.81l13.98-1.42-3.07,1.37c32-1.84,52.02-4.64,83.96-6.05,1.92-.08,5.25-.66,7.13-.83,14.85-1.37,25.43-2.2,44.82-3.2-6.88,1.18-21.01,2.1-32.01,4.03,2.41,1.36,43.3-4,45-4.27,5.68-.87,9.27-1.85,18.37-1.89,4.44-.02,7.05-.98,8.43-1.55,14.15-1.83,24.95-2.08,43.49-3.63,20.78-1.73,43.7-2.01,65.39-3.11,18.72-.95,35.93-1.87,54.91-2.61l23.6-.92c16.16-.63,31.51-1.04,47.11-1.96l23.76-1.4c-15.35-.91-30.02.7-46.46.71,7.21-1.32,16.29-.49,24.03-1,6.33-.41,13.15-.98,19.75-1.14l28.69-.71,19.08.13c13.61.09,26.04-.48,40.07-.37,7.41.06,15.38-.6,22.67-.77l33.26-.79,50.05-.77c20.04-.31,92.89-2.32,110.76-2.18,11.87.09,22.23-.24,33.61-.75,10.13-.46,21.93-.27,31.83-.84,11.24-.65,21.34-1.11,33.12-1.31,24.77-.42,9.43.82,38.59-.18,3.42-.12,8.05-.09,11.83.11l-48.7,1.19,2.43.33c2.37.32-10.07.43-3.73.4l-23.33.1c-5.41.02-11.84.74-17.02,1.25,34.57-.48,49.11-1.58,84.52-1.63,16.52-.02,32.64.11,49.15-.08,27.37-.33,53.15-.38,80.6-.05,33.8.41,66.39.72,100.27.71,4.18,0,6.9.16,9.01.73,20.84.34,41.86.09,63.5-.61l-25.34-1.02c-12.01-.48-24.99-.24-37.44-.46-34.36-.62-39.76.56-77.25-.86-11.77-.45-23.9-.18-35.9.03l-22.1.39c-.56,0-2.91-.14-3.42-.16-10.77-.38,24.48-.65,23.57-.63,37-1.03,53.94.32,90.5.39l27.94.05c13.41.02,26.33.01,39.67.24,28.98.49,57.7.17,86.49.99,25.15.72,48.36,1.76,74.52,1,12.99-.38,28.05.1,40.7-.48,10.75-.49,20.61-.93,31.66-1.31-10.7-.41-20.82.49-31.39.42l-80.57-.48c-20.99-.13-41.66.31-62.36-.18-15.76-.38-30.26-.73-46.19-.89l-105.25-1.03c12.33-.15,24.1-.14,36.27-.07l69.08.36,62.51,1.01c12.61.2,24.25-.06,36.56-.13l70.13-.43c6.13-.04,11.6-.26,17.43-.43,13.79-.41,28.4-.26,42.05-.87l44.7-2.01c4.07-.18,9.64-.31,13.5-.55,27.81-1.69,54.9-2.9,83.9-3.65,15.89-.41,23.37-1.77,37.05-2.39,13.02-.59,24.45-1.11,38.13-1.58l-30.41,2.25-5.04,1.14-26.89,2.2c-3.73.21-1.39.27,1.85.27l5.99-.02c-7.71.64-15.65,1.23-24.29,1.64l-40.61,1.94-18.37.85c-6.42.3-13.28.52-19.35.93-28.36,1.93-38.99.52-70.93,2.76l-.42.72c8.96.08,15.08.18,22.02-.07,7.58-.27,14.28-.39,21.79-.6l46.8-1.28c34.49-.94,34.47.52,77.86-1.58,12.51-.61,25-1.07,38.84-1.59,4.11.09,1.3.25-1.3.49-17.3,1-34.13,1.79-51.68,2.56-7.67.34-15.59.91-23.2,1.06-19.3.4-36.7,1.05-55.72,2.17,13.89,1.5,60.51-.27,74.19-1l34.43-1.83,28.49-1.65,36.13-2.19c.81,0,4.21,0,2.92,0-4.02.36-8.72.91-11.38,1.06l-39.81,2.26c-4.22.24-9.63.63-13.97.96-22.27,1.72-43.78,2.97-68.84,3.83,12.88.4,25.79.65,39.74.48,3.04-.04,31.79-.63,29.31-1.03l-2.78-.45,56.85-3.62c7.51-.48,13.23-1.2,21.27-2.04.15-.11-.57.42-.64.47-5.13.25-7.39,1.04-10.07,1.67-2.44.4-8.36,1.13-11.57,1.35l-35.46,2.42c-1.22.06-.03.2,3.58.53-14.39,1.13-23.2.44-46.14,1.73,7.4.77,16.01.73,24.47.42,14.26-.53,27.67-.93,42.12-1.31M1691.24,702.33c13.7.47,24.01-.26,35.55-.5,19.09-.4,37.14-.98,55.02-1.92l-6.97-.46c30.36-2.39,33.45.11,64.75-3.63-11.06-.17-45.83,1.45-56.25,2.04-11.68.66-23.47,1.46-35.44,1.88l-27.75.97c-10.38.36-20.08.8-28.92,1.62ZM1777.81,704.98l18.96-.9c-21.1.02-40.35.59-60.48,1.56,14.5.91,27.66,0,41.52-.65ZM330.48,712.33c2.71.07,8.16-.6,10.12-1.15-9.01.19-15.72.43-23.64.79l13.52.37ZM250.8,721.45c-3.17.2-6.72.65-6.65.84,6.89-.03,11.83-.04,17.84.09,2.38,0,4.69-1.03,6.53-1.44l13.7-3.1-15.03.52.5-.68c.08-.11-1.85-.23-2.16-.13s-1.47.47-1.95.59l-7.94,1.94,10.29.41-15.11.96ZM242.2,719.09c3.84.02,10.4-.14,13.05-.45.81-.09,1.4-.76,1.5-.94s-14.38-.26-14.55,1.39ZM228.71,725.93c11.47.36,20.18.31,27.85-.79-3.15.03-6.77.14-9.76.26-5.71-.5-13.19-.41-18.09.53Z"/>
    <path class="cls-1" d="M231.9,600.56l8.37,2.18c1.87.49,3.55.94,4.91,1.24,1.59.35,9.97.16,10.09-.21-5.91-1.97-11.33-3.67-14.75-5.49,6.92,1.95,12.47,3.71,18.02,5.74l41.64.51c-3.49.27-8.47.53-12.18.57l-25.14.25,39.86.66-16.62.33c-6.47.13-13.29-.68-20.42.16,35.79,1.26,69.53,1.17,108.46,1.16-4.83-1.49-9.61-2.31-16.27-3.9,5.75.67,9.28,1.29,15.5,2.27l-4.85-2.3,11.42,2.42c3.2.68,5.97,1.32,9.33,1.81l-22.56.29c-26.72.35-52.01-.18-79.12-.42-16.3-.14-27.5-1.71-37.27-.19-1.08.17-3.44-.67-4.64-.91l-25.17-.73c-10.5-.3-21.17.56-27.27,2.15,10.36.18,17.69-.65,25.62-1.32l-10.77,2.18,17.08.23-18.49,2.56h10.06c-.22.36,1.62,1.43,3.25,1.3l17.21-1.43c1.16-.1,5.72-.09,5.67-.31l-.23-.99,12.59,1.75c1.22.17,3.76.7,5.09.63,1.59-.08,4.74-.45,5.15-.55l-12.21-2.1c3.71.18,7.66.55,10.77,1l17.15,2.48,19.13-.69-10.96-1.37-15.5-2.19c-5.03-.71-15.51.02-20.52-.69l12.54-.09c.7,0,2.57-.4,3.06-.49-3.65.68,26.82.64,28.45.63l38.09-.08c30.32-.06,59.71-.41,90.14.58l-88.5-.07c-14-.01-27.05.02-41.17-.16-5.16-.07-10.68.09-16.07.34,8.26,1.32,13.97,2.48,21.61,3.35,6.12.7,16.63-.6,22.18-.87,17.61-.85,36.16-1.08,54.41-1.36-4.31.29-7.77.45-9.91.84,48.17.05,93.58.46,140.49,2.17-9.76,1.02-19.84.53-29.67.16-53.65-2-41.83-1.44-94.34-1.33l-45.64.1c-12.55.03-24.65,1.47-37.38,1.71-5.53.1-11.64.57-16.3.74-7.5.28-15.67.06-20.41,1.63-5.68.23-14.26.4-19.81.77l-31.51,2.09c8.67.26,15.75-.35,23.55-.65,12.37-.48,23.79-1.07,35.86-1.86l32.14-2.1c3.11-.1,5.01-.19.89.47,12.96.21,18.41-.92,29.54-.76l-20.26,1.04c24.15.73,40-1.06,58.08-1.33l-15.02,1.45,21.74-.46c-8.66.84-11.58.79-24.91,1.61-17.86,1.1-33.84,2.37-48.81,4.15,4.58.56,7.83.8,11.45.61l67.03-3.48c14.39-.75,61.53-2.03,75.27-2.03,19.68,0,38.32.08,57.69.36l21.26.31c5.96.09,11.92.23,18.32.4-16.73.22-33.44-.03-51.04-.34-15.72-.28-30.34.05-45.79.34-31.96.6-63.38,1.52-93.37,3.63-13.53.95-27.05.87-42.82,1.61l34.95,3.07,22.42,2.27c-14.33-.8-26.4-1.96-39.42-3.17l-15.34-1.43c-5.9-.55-10.14-.73-15.93.15l-17.17-.06,8.94,1.43c9.49.41,16.12,1.33,24.39,2.23,5.76.63,12.87.96,18.22,1.7-10.15-.32-18.05-1.19-26.56-2.34l-18.63,1.55,12.47,1.22c5.42.53,12.54.87,18.65.5,11.62-.7,21.97-.27,33.67-.22,13.93.05,28.24-.44,42.32-.42l30.51.04c-25.24-3.57-8.03.14-31.68-2.72-14.48-1.75-29.35-2.47-37.69-4.21l27.02,2.31,31.59,2.72,10.58.93,1.16-.86c15.32,1.29,13.27,2.49,28.48,2.17,7-.15,14.6-.04,21.59-.1,18.83-.16,36.69.07,55.69.4l39.36.69c8.59.15,16.59.41,24.34.84-39.56.46-77.44-.22-116.73-.91-7.24-.13-15.64.24-22.9.24-38.89-.03-107.38,1.82-146.5,3.35-5.21.2-8.85-.59-11.84-1.35-9.64.19-20.83.63-30.64,1.06l-25.15,1.08c12.04,1.38,37.68.24,44.13.52,16.75.75,31.78,3.77,37.69,2.31l-9-1.18c4.37-.46,12.42,1.6,18.88.81-7-1.01-11.98-1.59-16.52-2.75,8.98.91,15.84,1.81,23.28,2.77l64.7-1.44-3.44-.7c7.74.43,14.33.72,23.07,1.04l-5.56.7,19.59-.11-14.43-1.75c-7-.85-15.1-1.42-18.35-3.06l19.29,1.95,1.79-.41c.67-.15,11.93.95,12.44,1.4,1.1,1.01,3.12,1.93,9.69,1.86l42.83-.45c9.86-.1,18.88-.48,28.28-.17l-52.74,1.46,49.72,2.93c5.27.31,9.54,1.12,16.21.08-10.17-1.19-34.37-1.68-40.53-2.88,17.46.3,31.19,1.75,47.64,2.7,5.92.34,15.25-.04,21.9-.1l29.65-.28c14.9-.14,29.7-.52,44.45-.46l46.23.19-16.82.46c-29.55.8-84.53-.64-113.59,1.3-4.33-.02-8.88.11-13.41.25l-40.78,1.27c-11.21.35-22.58.34-34.28.39,5.07-.31,10.7-.74,15.96-.92l35.55-1.23c-12.96-1.03-25.73-1.66-38.92-2.53-11.82-.78-21.65-1.39-34.75-.88-8.69.34-19.63.26-28.74.77l-74.1,4.18c-16.19.91-29.63,2.31-47.7,2.38-3.6.01-10.09.45-13.92.66l-1.33,1.53-1.77-1.43c-11.3.72-22.94,1.59-33.39,2.93-19.47,2.48-22.85,1.12-49.32,2.96-13.03.91-25.13,1.83-36.23,3.84l6.89.25-13.39.9-.43-2.12-7.66,1.04c-8.83-.89-6.63.54-21.89.73.59-1.34,4.08-1.95,8.96-2.46l-2.32.87,11.59.47,22.43-3.01c-4.6-.12-6.78.06-12.43.25,19.71-2.64,21.72-1.25,38.41-2.3l26.23-1.66-14.11-.2,10.38-.69c-3.6-.4-8.11-.55-12.2-.35l-16.16.8c-2.78.14-6.11.93-8.39,1.13l-20.68,1.84c3.55-.71,4.59-1.37,4.51-2.57l-6.6-.11,10.73-1.62,10.77-1.68,14.6-2.31-1.73-.8c-.34-.16,2.75-.37,4.23-.41l39.93-1.16c.56-.02,3.91.17,4.48.19s.28-.29-.16-.36l-1.92-.31c-.3-.05-.72-.3-.92-.37-.3-.1,2.26-.03,2.81.03l11.99,1.4c4.94.58,10.77.8,15.82.27l-25.92-2.41c-1.39-.13-4.87-.76-6.49-.72-5.1.13-14.33.63-18.69,1.08l-19.58,2.04c-2.33-1.22,3.01-1.03,4.23-2.27l-20.24,2.54c3.73-1.66,17.16-1.95,22.27-3.7l18.69-.46c5.35-.13,14.01.57,16.73-.78-3.33-.28-8.33-.78-10.77-.92-6.9-.39-16.33.63-24.17-.63-1.17-.19-.59-1.12,1.01-1.26,18.91-1.69,29.81-.23,43.35-1.41-17.55-.19-32.99.15-49.96.49,14.16-1.12,30.04-1.63,46.15-1.28,17.58.39,32.19-.47,49.01-1.29l16.49-.8c-7.89-.7-12.86-1.08-18.58-1.44l-53.53,3.32c1.59-1.41,6.52-1.26,12.43-2.27-7.98-.05-15.12-.05-23.01.08l-27.99.46c-7.32-1.34-12.95-1.08-20.99-.43-6.55.53-14.42.84-21.66,1.17,6.09-1.32,15.33-1.32,22.31-1.5,1.01-.25,4.33-.67,6.22-.68l18.51-.14-18.3-.64c-13.31-.46-23.18-.08-37.78.78l8.3-.9-3.9-.42c-.52-.06.52-.29,1.06-.33,1.87-.13,5.06-.32,7.86-.49-22.21-.95-24.69,2.7-36.56,1.76.64-1.96,11.35-1.68,18.42-1.92,9.34-.31,18.39-1.34,27.69-1.05l-9.92.53c2.46.84,7.14.48,11.19.53l27.02.37-3.29-1.39c-.71-.3,2.79-.9,4.62-1.02l16.96-1.11c-12.88.04-22.95,0-34.88-.34l-24.79,1.01,6.81-.68-11.94-.63,31.47-.15c6.64-.03,14.19-1.28,20.62-1.99l-20.03-.16c-6.61-.05-13.48.37-19.93.71-34.71,1.86-24.02,3.77-40.98,3.27,4.9-1.09,10.06-1.49,17.74-2.29l-8.4-.15,16.03-1.99c.83-.1,1.48-.82,2.52-.83,4.1-.05,11.74-.55,15.32-.96l5.5-.63c2.78-.32-4.67-1.74-3.97-2.08.46-.23,2.03-.65,3.07-.86l12.93-2.52c-12.73-.53-37.39,3.13-36.77.61l32.98-1.21,4.55-1.57c-5.15-.37-13.88.22-18.73.66-3.45-.44-8.43-.86-14.58-1.28l7.64-.85c-7.73-1-9.81,1.52-18.08,1.53l4.71-1.93-27.63,2.02c-.64.05-3.7.12-3.83.04l-.99-.62c-5.18.22-11.06.54-16.22,1l-26.78,2.37c-5.03.44-9.42.8-14.23,1.13l.62-1.33c.13-.28,3.54-.44,5.48-.62,21.35-1.88,28.54-2.01,51.13-2.95l2.49.36c-.66-.1,18.77-1.9,30.17-1.45l5.13-1.01c-4.4-.24-9.88-.58-14.03-.4l-34.6,1.45c-.64-.28,34.44-2.15,31.64-2.11,8.94-.13,18.44-.35,22.87-2.35l-21.89-.04c3.64-.91,8.55-1.48,15.78-1.46l-12.01,1.08c5.35.03,10.75-.05,16.63-.24,7.92-.25,16.3,0,24.4.06,5.79.04,14.11-.74,19.55-.76l17.36-.06-13.86,1.32c5.18,1.26,12.63.93,19.27.83l-2.39-1.47c7.61,1.07,5.72,2.45,15.93,1.8l-10.74-3.6-41.83-1.58c7.14-.83,38.82,1.77,39.84.58,3.89.53,9.66,1.13,14.63,1.54l-9.71-.25ZM382.84,637.99c15.89.09,30.83-.44,44.89-1.43-23.67-.5-46.27-.08-68,1.29l23.11.14ZM324.91,642.67l9.51.07,9.38-1.52c-11.48.24-20.39.51-32.65,1.11,3.48.71,8.4.31,13.75.35ZM282.28,618.04c2.41,2.68-14.18,1.93-5.81,2.69.62.06,3.4.32,4.08.29l17.8-.8-5.39-1.01c1.54.12,6.97.55,8.82.4l30.54-2.93c-5.95-.21-11.89-.18-18.18-.06l-21.64.42,5.07-.99c-2.71.18-4.84.35-7.18.54l-32.11,2.7c10.95.36,16.52-.91,24-1.26ZM284.92,636.16l-29.13,1.35c8.01.77,15.84,1.39,23.81,2.01,4.9.38,9.15.85,14.54.62l28.34-1.22c-3.78-.15-8.69-.19-13.13-.1l-18.98.42c10.28-.52,19.09-.75,28.04-1.76l-18.42-2.06-15.08.75ZM289.64,622.52l19.22-.74c-2.44-.4-4.44-.87-5.4-.78l-3.87.36c-4.35-.04-10.41,0-9.95,1.16ZM240.75,624.99c4.13.68,9.99.88,16.55.84l-.45-.86c3.74.26,7.33.44,12.02.41l-10.04-1.84c3.63.07,5.49.47,8.2.93,7.23,1.23,19.28,1.01,27.79.15-3.86-1.42-27.31-1.56-21.52-2.54l-2.18-.58c-.55-.15-.13-.56-.03-.84-17.04,1.54-29.54.87-40.36,2.67l10.03,1.66ZM248.15,628.03c11.51.47,22.89.16,33.41-.93-6.42-.34-11.61.1-17.33.32l-16.08.61ZM243.41,643.78c12.01.49,19.96,0,28.1-1.03-1.72-.37-30.56.79-28.1,1.03ZM242.83,614.59c7.66,1.09,12.78.08,21.26-.35,1.18-.04-2.55-.74-3.99-.65l-5.03.29-12.24.71ZM221.57,613.44c7.18,1.31,10.62.34,15.87.41,6.55.1,13.5.02,19.16-.65-2.53-.8-7.69-1.61-11.39-1.73l-23.65,1.96ZM198.79,644.75c14.92-.14,25.52-.94,37.37-1.71l22.17-1.44c-6.03-.7-10.27-.45-15.54-.36-18.13.29-29.78,1.47-44.01,3.51ZM191.05,646.57c25.15-1.03,42.34-.18,57.37-1.48l-5.1-.54c-1.73-2.23-46.34,1.48-52.27,2.01ZM205,624.15c3.99,1.41,10.74.41,15.13.81,7.05.64,13.71,1.73,23.15.79l-15.12-2.43-23.16.84ZM231.78,628.2c.93,0,3.92-.71,3-.74s-3.53-.15-4.64-.13l-19.11.35-1.98.51h22.71ZM181.85,617.91c8.27-.22,12.67-.43,18.75-.82l.98.4c1.34.55,14.2-.55,16.98-.79l13.26-1.12c-7.74-1.25-19.16-.35-24.33.9l-11.82-.95c8.64-.25,15.66-.58,23.11-1.46-10.75-.14-21.57.63-29.93,1.97-.5.45-.48.71-1.3.85l-5.71,1.01ZM175.71,604.02c5.19,1.27,13.13.83,18.3-.32-5.38-.21-11.75-.11-18.3.32ZM159.81,619.61c11.98-.15,21.45-.41,32.3-.85-11.89-.42-22.43.21-32.3.85Z"/>
    <path class="cls-1" d="M291.85,648.63c7.65-.48,14.65-.76,22.5-.97-6.28.59-12.58.79-19.23,1.32l-29.76,2.35-42.64,2.69c-4.91.31-8.94.7-14.9,1.22,8.68,1.92,40.86,1.1,52.96.24l-12.59-.92c3.08,0,7.18.04,11.24.14l16.98.38-16,.76c-6.67.32-12.55.7-18.62,1.25,15.54.5,42.89-1.58,59.37-1.56-31.67,1.72-59.16,1.78-90.68,4.29-1.18.09-3.61.52-3.19.67,3.82,1.31,7.83.24,12.21,1.4-3.24.41-5.93-.29-12.99-.72-1.52-.09-4.09.56-5.17.85l-10.85,2.84c11.1.2,16.22-1.7,26.7-1.12l-28.64,1.71c-7.03.42-13.01,1.86-19.19,2.62-3.73.46-7.15.82-6.69,1.54,5.88-.41,9.9-.43,14.68.07l14.41,1.52c2.96.09,2.47.15-1.09.28-4.67-.48-10.71-1.31-16.49-1.38-4.09-.05-10.25.82-13.38,1.27l26.83.84-22.44.54c-2.39.06-4.36,1.24-4.62,1.6,12.32-.94,25.21-1.37,38.48-1.23l-32.37,1.2c-2.44.09-7.03,1.09-6.2,1.27l7.28.1c-4.87,1.7-17.39.42-19.95,2.83l10.65-.65,3.07.86,24.55-1.47c.89-.05,3.89-.13,3.8-.27l-.36-.61c5.3.31,10.57.37,16.3-.07l-9.36-1.24c-.45-.06-.41-.42-.14-.51.41-.13,3.17-.26,3.84-.16l10.49,1.46,1.04-.7c7.16.43,12.36.18,19-.17l26.91-1.41c8.9-.47,19.14-.31,28.54-.53,14.06-.32,26.86-1.13,41.32-1.08-17.08,1.63-35.66,2.08-55.06,2.78l-36.35,1.33c-1.2.04-4.47.45-5.31.58-1.04.17,1.32.71,1.79.94-.77.54-1.41.82-1.1,1.1.36.33,5.27,1.06,7.17.95,31.5-1.84,98.01-4.04,131.23-4.22l9.61-.05,19.09.11c-5.21-.82-8.96-.99-15.39-1.53l29.36,1.3-11.33-1.27,29.85,1.34-4.92-.94c31.67,1.41,16.15-.07,28.08-.61,62.97-2.85,42.14-1.69,102-1.64h9.34c-12.56,1.09-53.51.37-60.85,1.19-5.75.64,18.66,1.5,16.91,1.97l-26.89-1.08c-30.08,1.81-60.16,2.79-92.01,2.8-48.05.01-94.43.89-141.02,2.96-15.31.68-33.8.52-32.63.99l2.57,1.04-11.97-.84c2.75,1.08,7.05,1.75,12.18,2.31,16.92-1.39,32.54-2.54,51.35-2.72l-36.79,2.12,6.81.66c-5.26-.03-9.63-.08-13.07.16l-7.08.51c15.57,1.09,18.65,2.93,33.56,1.02l-8.2-.86c11-.16,4.86.97,15.77.82l-9.52-1.51,18.07,1.34c5.55,0,13.2-.83,20.3-1.46l-8.23-1.43c8.11.21,11.68,1.63,20.08.75l-16.28-2.01c7.94-.03,12.6,1.02,19.74,1.48,7.33.47,17.26-.61,25.12-.79l46.85-1.09c33.88-.79,66.54-1.67,100.78-2,16.25-.16,31.59-.41,47.67-.81,15.25-.38,30.41-.77,45.68-.64l53.83.46c-8.62.83-16.32.4-25.44.7,25.15,1.35,39.72-.33,62.49-.2,18.29.1,35.5.38,54.84.75-21.46,1.52-31.19-.79-59.8.44-12.56.54-25.51.66-38.44.46-24.09-.38-46.67.09-70.4.83-41.02,1.28-85.25-1.29-139.14,1.07-15.6.68-31.26.69-46.73,1.19-11.4.37-19.82,2.48-34.24,2.09-2.82-.07-7.25.86-7.79,1.37-26.41,1.6-25.34.73-56.68,2.73l-20.56,1.32c17.67.53,32.52-1.66,52.84-1.64l-22.06,1.23c-3.96.22-6.58.47-9.34,1.13l-18.6.72c-6.87.27-13.9,1.07-20.58,1.19-3.38.06-4.98.01-7.07.34l21.37.38c-23.57,2.19-35.27.67-59.15,2.65l18.55.32-18.52,1.69,12.71.47-13.33,1.14c-10.98.94-7.23,1.33-25.78,2.75-2.45,1-4.82,1.53-11.3,1.71l7.74.65,9.89-.8-22.81,2.99c6.65,0,9.79-.35,16.08-.7l-15.6,2.06,3.38.45c.46.06-1.22.21-2.18.33-4.66,2.77-17.45.47-26.56,3.03l-10.38-.17,4.42-1.31,13.67-.87-11.88-1.79c5.04-.37,6.45-.64,9.79-1.24l4.74-.85c1.03-.19-2.56-.75-3.68-1.06l10.1-1.78c8.08-.15,13.41-.79,19.97-1.42l28.6-2.74c-13.95-.37-23.81,1.03-35.34,1.56l2.53.48c8.35,1.6-11.37-1.12-20.39,1.09,5.2-1.83,15.72-2.14,21.74-3.8-8.31.05-15.58.56-21.87,1.19l-7.14-.92,13.86-1.9c-5.44-.26-9.58.02-15.69.36l4.9-2.62c3.07-.17,2.89-.24-.46-.43-6.26.23-12.01.59-17.71.98l-13.41.93c-1.64.11-5.01.09-8.5-.07l17.63-1.01c5.67-.33,11.71-.92,18.01-1.05,10.43-.23,20.5-.69,24.78-2.35-3.21-.2-8.55-.65-9.78-.38l-5.59,1.22c.32-.86,1.67-1.53,3.76-2.43l-5.84.18,6.48-1.9-33.73,2.02c12.77-2.72,8.13.19,27.39-4.09-4.03-.32-7.87.32-10.84.89l-9.47-.13c10.67-1.23,21.17-2.36,25.78-4.6-12.73-.98-15.3,1.85-16.86,2.37-.41.14-3.55.05-3.37-.11,1.05-.91,7.28-2.64,13.57-3.48,12.92-1.71-.02-2.86,14.11-4.08,3.77-.32,6.54-.83,6.39-1.74l-23.7,1.77c2.53-.71,6.18-1.23,10.32-1.55l13.42-1.04-8.45-1.63c-22.6.94-18.72,3.13-28.85,2.55,11.34-3.79,13.9-2.64,24.29-4.84-8.38.03-13.61.68-21.37,1.27,4.73-1.06,7.71-1.76,11.74-2.77,6.61-1.66,16.84-.67,22.17-3.66l-19.29,1.09c2.33-.83,6.5-1.47,10.84-2.05l-1.59-.49c-.68-.21,8.24-2.67,15.43-3.59l-13.32.02c-8.12.97-15.4,1.86-22.7,3.31,1.37-2.23,11.6-2.81,23.66-4.41,5.17-.69,8.65-1.47,15.3-1.72,4.6-.17,8.9-.9,13.04-1.19l16.36-1.17,17.94-1.28c6.18-.44,12.49-.93,18.71-1.32l23.66-1.46-7.6-.78c9.86.42,15.06.23,22.85-.26l22.64-1.43ZM208.35,686.23l14.16,1.39c5.89-.23,11.8-.61,18.92-1.23l-13.32-1.21c-6.04-.55-15.89.23-19.76,1.05ZM219.81,679.84c2.31.31,4.15.56,5.86.63s7.01-.46,7.03-.71l-7.2-1.12c-4-.62-10.07-.67-14.18.04l8.49,1.15ZM176.54,684.1l18.99,2.09,29.96-2.43c-.57-.44-3.95-1.24-6.38-1.37-2.72-.14-7.24.3-10.29.54-10.25.81-20.46.81-32.29,1.17ZM199.43,681.74c-4.68-.43-8.86-.5-8.52-1.19,6.86.5,12.71,1.9,19.45.81-.18-.59-7.31-1.88-10.72-1.62-9.82.74-17.83,1.28-28.04,1.82-22.57,1.2-26.27,3.69-21.19,3.25l3.9-.34c44.49-3.84,20.01.76,45.12-2.73ZM186.6,662.68c6.47.32,15.86-.4,15.09-2.14l-10.09.48c-1.45.07-4.14.32-5.24.48s-.31.95.24,1.18ZM166.12,659.71l31.74-1.84c-7.95-1.36-16.68-.54-23.46.59-3.04.41-5.77.71-8.28,1.25ZM168.19,686.38l17.34-.41c-3.64-1.37-11.53-1.87-19.09-1.07l1.75,1.47ZM178.28,662.76c1.12-.22,1.07-1.31.69-1.59-3.24-.08-8.89.05-11.07.4-1.76.28-2.7,1.18-2.69,1.71,3.04.13,10.67-.06,13.06-.52ZM167.77,665.61l-15.11,1.56c9.92.33,17.26-.82,21.82-2.31l-11.94.32,5.23.43Z"/>
    <path class="cls-1" d="M1921.11,580.76c-4.81-.1-12.95-.55-17.45-.95-7.66-.68-13.65-.58-21.52-.73-12.98-.24-26.07-.97-38.66-1.56l-30.15-1.41c-43.89-2.05-40.59-1.48-84.28-2.17-13.03-.21-25.08-1.13-38.01-1.68-8.75-.37-18.39-.29-27.55-.38-29.44-.28-52.24-1.84-78.56-1.41l-10.58.17c-3.21.05-5.4.46-6.09,1.11l-9.72,1.39c6.66,1.27,14.77,1.86,24.74,1.68l-13.77-1.55,42.99,2.3c4.89.26,9.02.47,13.42.81,23.07,1.76,46.52,1.6,72.13,3.63l-17.26-.42c-8.73-.21-15.8-.53-24.71-1.03-4.74-.22-12.45.16-17.64.51l43.07,1.36c20.54.65,40.82.96,59.49,2.68-16.49-.44-31.63-1.02-47.49-1.68-24.11-1.01-38.16-1.11-58.41-1.91-26.03-1.04-43.07-.68-66.43-1.91l10.8-.07c-.8-1.95-10.34-3.21-20.43-3.2l11.85,2.4-16.84-.36c-2.5-.05-7.71.09-9.85-.08l-19.79-1.64-12.12-.97,25.2.86c0-.44-29.76-2.61-23.87-2.65,9.04-.06-.81.11,17.34,1.35,7.76.53,14.22,1.01,23.01,1.04-5.67-1.3-13.11-3.29-21.95-3.16l-21.32.32-26.38-.07c-13.75-.04-25.12.44-38.39.99-22.23.93-45.59.27-68.48.68-7.36.13-14,.12-21.41.11-30.66,0-60.75-.15-91.11.18-28.16.3-72.76.44-99.63-.43-4.45-.14-9.93.12-14.61-.43l57.43.16h60.89c6.66,0,13.52-.23,19.73-.29,8.75-.08,17.43,0,26.37-.26,9.8-.28,19.55-.45,29.46-.34,15.16.17,29.73-.37,44.47-.4,27.22-.05,52.29-.48,79.1-1.62,9.44-.4,21.09.49,31.02.32,30.95-.55,16.88-1.58,50.94,1.06,29.9-2.17,15.15-1.17,41.32-1.72,12.95-.28,25.97.3,39.13.42,23.74.21,45.71.87,68.96,1.54l42.91,1.24c8.66.25,16.38.39,25.35.12-8.42-1.42-17.02-2.19-26.61-3.05l-15.58-1.4c-20.41-1.84-35.35-.97-51.86-3.51,57.12.51,76.83,5.5,126.37,9.33l11.5.89c14.13,1.09,29.64,1.5,46.18,1.88-7.02-1.1-15.42-1.11-23.7-2.1l40.13,1.47M1945.94,579.67,1873.62,577.56c14.49,1.04,42.63,1.76,59.55,1.61-7.1-.3-13.99-.56-21.54-.75l-23.74-.57c-4.79-.12-9.17-.42-14.28-.29Z"/>
    <path class="cls-1" d="M1571.36,567.88c-14.32,3.32-21.89,2.18-19.84,1.95l4.44-.49c5.15-.57,9.31-1.11,15.41-1.46Z"/>
    <path class="cls-1" d="M1375.77,652.23l10.17-.42c.38-.38-36.92-.09-36.08-.11-27.9.95-20.87-.71-40.67.31l14.07,1.18c-11.53-.32-19.68-1.51-29.74-1.07l8.72,1.04c-9.84-.52-17.1-.85-26.7-1.03,1.25-.07,6.79-.55,9.43-.56,24.66-.14,53.41-.31,79.19-.73,17.16-.28,32.54-.32,49.4-.32,20.82,0,6.08.53,22.66.32-13.74-3.1-32.47-.98-51.21-2.52l40.31-.27-19.92-.64c-21.59-.69-55.86.45-80.74-.01,9.09-.54,18.23-.38,28.13-.56,40.45-.7,79.76-.48,119.28,1.2l55.03,2.33c14.2.6,28.02,1.47,42.58,1.84,14.83.38,29.47-.24,44.47-.05,49.53.62,97.93,1.05,147.2-.04,38.4-.85,45.18-3.86,57.09-4.91l3.88-.34c.99-.09,2.81.31,4.38.56l16.17-1.23c-9.53,1.52-20.01,2.29-30.57,3.45-7.37.81-13.76,2.24-21.91,2.63l-26.95,1.28c-15.74.75-29.53.89-44.61,1.29-24.06.64-45.84,1.19-70.29.71-19.47-.39-38.92.16-58.08-.67-53.87-2.34-124.23-.33-138.97-.63l-14.93-.31-48.6.64c-14.57.19-28.62.9-43.32.95l-35.82.11c-10.6.03-21.03-.06-31.67.21l-46.18,1.19c-17.96.46-35.04,1.28-52.53.85l27.94-.69,51.12-1.34,35.57-.65-4.19-1.17c5.2.54,8.39.98,11.32,1.2s9.51-.31,12.33-.64l-5.83-.72,18.75.7v-.97c5.59.67,13.43.77,20.91.43l-8.31-1.05c25.34,1.76,8.6.56,28.08.53,4.27,0,10.42.07,14.04-.04l22.22-.65-26.57-.59ZM1486.33,651.4c4.21.55,8.83.81,10.92.72l-3.22-1.22c6.9.8,10.68,2.14,20.64,1.41-6-1.84-39.03-2.08-52-2.38,5.69,1.53,15.16,1.71,23.66,1.48ZM1467.98,649.46c6.5.32,13.18.46,19.79.4-10.84-.75-22.02-1.17-33.23-1.06l13.44.66ZM1436.5,649.6c5.67,1.43,14.01,1.48,23.12,1.12-9.72-1.32-9.77-.83-23.12-1.12Z"/>
    <path class="cls-1" d="M1916.76,675.31c-23.28.71-47.03,1.76-70.11,1.19-16.45-.41-29.29.42-43.17,2.08-19.69,2.36-42.61,3.73-63.46,6.8-16.79.4-8,1.05-20.62,1.25,15.83-2.22,24.27-3.72,42.77-5.26l-7.85-.39c9.94-1,20.42-1.99,31.71-2.84l24.28-1.81,27.37-1.63c11.99-.72,23.27-1.23,36.89-1.44,9.35-.14,17.62-.59,25.58-.84,11.92-.36,22.89-.32,35.13-1.14l-10.77-.78,25.5.54c-6-.71-9.86-.96-15.72-1.46M1949.31,669.55,1949.08,673.02l-24.19.99,13.69-.02"/>
    <path class="cls-1" d="M558.1,626.07l-46.98.99c10.54-.71,21.26-.84,32.79-1.17l39.62-1.12,4.92-.13c.83-.02.17-.39.05-.56,7.61.07,14.01.09,22.29,0l-5.6-.72,11.94-.53c21.16-.94,57.79-2.01,78.71-2.15-16.35,1.44-33.12,1.33-49.91,1.84l-35.08,1.07c.62,1.1,51.61-.87,50.37-.84l38.42-.82c32.72-.7,64.23-1.45,97.31-1.22,4.95.03,12.23.74,16.74.72l50.88-.3c17.29-.1,33.79,0,51.1.11,4.92.03,9.52-.32,14.87.22-11.88.27-23.47.39-36.25.48-5.99.04-12.28.28-18.27.38-9.18.16-17.8.06-26.48.31l33.32.22,118.02,1.01c-5.23,2.42-74.97,0-89.65.44-7.21,1.1-12.76,1.52-21.91,1.35-43.86-.84-59.28-1.16-104.62-.38-7.98.14-15.16.85-23.67.64-8.79-.22-17.31.19-26.13.38-19.59.43-39.39.31-59.18.09s-35.52.41-53.83,1.06c-15.67.56-31.85.64-48.37.8,15.36-.74,31.08-.83,47.01-1.57l30.77-1.44,51.37-1.49,71.83-1.21c-12.15-.78-24.18-.55-36.47-.29l-36.86.78c-26.32.56-51.34,1.23-77.59,1.96l-26.71.74,2.86.83-11.8-.93,9.34-.89-22.96.72c-4.95.15-10.23.48-16.22.61Z"/>
    <path class="cls-1" d="M1497.7,664.92c11.46-.23,23.05-.39,36.14-.33-11.16.69-22.49.79-36.14.33Z"/>
    <path class="cls-1" d="M1311.34,663.11c27.47-1.91,43.75-.76,71.07-1.27l34.4-.64c19.01-.36,36.63-.64,55.96-1.89l-34.9-1.05,28.42-.27c22.39-.21,37.08,1.56,56.1,1.83l55.54.81c9.67.14,18.43.31,28.44.13-5.79-.92-11.89-.71-19.02-.51-10.03.28-25.5-.87-34.59-1.63l19.24.45-12.02-1.22c20.88.45,41.53,1.55,60.49,2.73l1.29-.52c.37-.15,2.17-.33,3.75-.52-5.37-.28-11.54-.56-17.36-1.16,17.97.3,33.88,1.52,51.87,1.43,13.4-.07,25.57-.04,38.07.36-5.04.58-9.66.66-14.98.59-14.29-.18-27.54.04-41.55.29-5.14.09-29.72.59-28.58.95l2.38.74c8.32,0,19.17.13,27.9-.08l21.77-.52,27.9-.81,35.08-1.21-3.88-.99c10,.2,17.33.49,28.02-.28l-9.65-1.08,12.9.45c-2.94-.8-8.67-1.24-14.53-1.68-2.93-.44-1.02-.4,1.81-.23l23.43,1.7c-1.83-1.28-8.08-1.39-13.98-2.13,6.22.06,13.55.66,20.06,1.22l43.28-2.05,19.11-1.04c-2.19.46-5.29.86-8.04.99l-30.8,1.54c-11.85.59-23.09,1.06-34.1,2.51,5.79.58,35.76-.97,42.92-1.42,6.48-.41,12.31-.92,18.29-.85l-17.24,1.21-10.83.76c-25.58,1.79-51.79,2.73-78.71,3.68-15.72.56-31.23,1.14-47.04.7-8.47-.23-17.26-.11-25.67.38-28.3,1.65-26.79.5-49.67,2.15-20.87,1.5-18.54.94-36.35,2.53l-26.31,2.34c-10.44.93-22.1,1.25-34.85,1.82l21.19-1.75,16.41-1.45-26.85.07,55.49-2.68,24.08-1.33,24.55-1.48c-21.6-.63-40.37.91-60.13,1.73l-22.06.91,3.52.84c-20.92.43-38.95.09-59.11-.54,6.75-.87,14.22.05,20.49-.18,16.75-.63,32.32-1.12,49.46-1.41,13.33-.23,26.34-1.72,46.22-2.3l21.54-.63-66.24-.14,15.62-.72c-27.75-.47-28.28-.06-58.44-.95-10.77-.32-21.38.61-31.62,1.15-9.68.51-20.19.61-30.41.73l-42.75.53c-28.9.36-56.35.05-85.83.34Z"/>
    <path class="cls-1" d="M1394.62,635.53l-12.14-.81-31.45-.81c-20.17-.52-48.65-1.14-66.95-1.05-1.11,0-4.38-.44-3.81-.46,16.38-.58,81.96.96,102.45,1.37l49.66.98c33.7.67,44.39,1.78,77.19,2.12,10.24.11,18.6.86,28.17,1.33l22.76,1.12,39.62,2.37,67.33,4.28c7.86.5,18.28.33,26.54.63,15.52.55,30.73.76,46.66.54l49.33-.7-11.38,1.3c-15.65.3-33.09,1.43-49.31,1.17l-52.56-.85c-30.41-.49-15.65.9-52.62-1.18l-44.37-2.5c-32.76-1.84-64.2-3.93-98.4-4.85l-74.35-2.01-23.23-.64c-4.26-.12-7.9-.25-11.57-.53,28.22,0,49.72.88,76,.47l-22.95-.6-30.63-.69Z"/>
    <path class="cls-1" d="M955.9,618.9c-26.01.77-92.98,2.33-117.81,1.19l50.25-.51c10.38-.11,20.29-.83,30.71-.93l43.95-.42c-7.51.07,120.19-3.11,120.76-3.13,18.92-.59,36.26-1.32,54.01-2.47l-31.56.37c8.22-.45,16.49-.74,24.7-.7,12.5.05,23.23-1.05,34.71-1.27l67.06-1.32,34.62-.71-3.29.88c34.75-.07,67.89-.34,102.13-1.05,14.39-.3,27.53-.86,41.61-1.31,14.91-.47,30.41-.53,45.65-.71,18.57-.22,35.24-1.1,53.11-2.02l13.19-.68c8.32-.43,15.87-1.09,24.55-.52l-53.18,3.69c-12.94.9-25.7,1.17-39.33,1.66l-11.92.43,3.68-.7-12.26.11,4.33.31c.63.05.96.27,1.23.4.25.11-3.3.22-3.95.15l-5.56-.64c-1.5-.17-5.7.21-6.77.45-3.75-.06-9.44-.15-14.03-.04l-36.09.89c-32.2.79-64.37.89-96.81.89-7.45,0-14.14-.45-19.22.77-19.3-.03-37.43.26-55.83.86l-46.44,1.51-112.15,3.21c-10.62.3-21.33,1.06-32.01.95-17.5-.19-34.9-.1-52.05.41Z"/>
    <path class="cls-1" d="M1932.89,590.36c-9.74-.19-19.61.18-29.36.39-24.79.53-49.15.18-73.98-.31-16.42-.33-32.49-.31-48.43-.86-13.7-.47-26.09-1.08-40.07-1.87,5.83-.2,12.26-.13,17.12.18,11.45.74,21.55.5,33.51.55l38.19.16c-13.18-.79-24.99-1.18-34.78-2.64,5.52.31,10.37.61,15.43.96l18.58,1.29c3.31.23,7.46.8,11.58.79,10.78-.03,19.97-.17,30.05-.36,5.99-.11,11.62-.01,18.39-.39l-32.36-2.16c27.67.24,37.25,3.54,68.47,1.74l-27.11-.78,30.34-.29-13.72-.76"/>
    <path class="cls-1" d="M1119.44,682.32c-15.08.03-28.45.38-43.11.88-18.2.62-37.02.46-55.6.52l-47.78.15,40.25-.87,81.45-1.22,123.21-1.27c16.28-.17,31.65.47,47.75.61,29.76.26,58.45.04,87.25-.12l-16.63-.55-24.79-1.14,92.35.75c44.72.36,103.9.49,148.32-1.42l-15.42-.74c25.28-.37,16.2.53,44.73-.85l26.14-1.27c13.06-.63,25.47-1.17,38.97-1.43-10.57,1.42-21.93,1.95-34.01,2.54l-53.92,2.64-25.34.95c-24.74.92-49.82,1.07-75.3.93-22.02-.12-43.25-.13-64.83-.57-11.99-.24-23.23-1.14-35.66.23l25.53.61.47.97,85.69.28c5.89.02,11.89-.44,16.78-.14l-23.43.71c-23.53.71-46.85.32-70.89.13l-12.77-1.03c-27.76.64-83.76.53-110.46.02-27.55-.53-53.84-.45-81.68-.4l-67.28.11Z"/>
    <path class="cls-1" d="M706.33,703.38c8.54-.38,17.81-.79,25.48-.76l12.23.04c24.02.09,37.21-2.77,64.95-1.64l-45.41,1.73-27.69,1.25-40.83,1.24c-10.83.33-20.63.73-29.77,1.84l46.44-.73c19.7-.31,39.32-.3,58.42-1.08l61.66-2.54c9.53-.39,20.43-.98,30.18-1.01,33.92-.11,50.83-2.41,82.22-3.03l50.89-1c17.04-.33,32.66-1.01,50.37-.96l52.44.14-22.18.85c-.27.01-112.95,1.64-125.67,2.27-24.64,1.23-15.96.35-39.75,1.63-19,1.02-38.57,1.31-58.1,2.06l-50.09,1.92c-37.64,1.44-74.98,1.69-113.34,2.15l-41.2.5c-10.3.13-20.02.51-29.39,1.26-36.88,2.94-66.88,3.86-106.19,4.94-7.82.22-15.29.37-22.14.07l90.75-4c49.46-2.18,39.12-3.27,76.68-4.95l49.06-2.2Z"/>
    <path class="cls-1" d="M1847.73,623.48c10.23.1,18.01,1.62,29.57.89l-19.81-1.79c6.47-.46,16.93,1.93,19.86.48-14.33-1.91-53.74-1.75-47.53-5.73l-35.09-2.32c14.4.41,27.62.91,41.48,1.56,5.13.24,11.02,1.27,16.27,1.28l15.25.02c-7.36-.91-15.53-1.77-22.23-2.8l-11.04-1.7c-18.06-2.78-18.98-.86-26.64-2.66l13.9.82,8.82.52c3.8.92,13.97,2.55,18.93,3.22l4.2.56c.93.12,3.68-.2,5.29-.34l-13.2-3.17,19.98,1.87c-4.25-1.06-7-1.9-10.87-2.71-5.26-1.1-29.61-4.37-30.15-4.26l3.03-.65c-13.78-.96-28.23-1.69-43.85-2.13-4.86-.14-9.62-.51-13.79-.97,18.43.33,35.21,1.11,52.34,2.21,17.88,1.14,30.99,3.35,43.69,5.89,4.83.97,12.55,1.9,14.97,3.13,1.58.8,2.84,1.28,5.44,1.84,11.18,2.4,13.5.23,33.28,1.92-8.41.34-14.63.64-23.99,1.29-2.75-.02-2.15.17.78.61l-7.47.27c-1.03.04-6.84,2.28-.29,3.06-.48.4-.96.69-.74.97s3.84.89,5.53.9l10.58.11-13.22,1.09c-4.42.37-11.11,1.55-14.78,2.14-.43.27.15.98-1.04,1.11l-6.37.7,18.04.15c-7.62.66-18.26,1-25.71,1.85-6.31.72-9.31,2.22-18.18,2.72-7.04.39-22.62,3.03-18.19.51l11.64-2.06-17.17-.27c6.62-.35,13.18-.08,20.78-.02,2.73.51,16.94-2.59,18.13-2.86,1.07-.24-.49-.82-.91-1.2.29-.34,1.49-.79.38-.88l-6.94-.51,15.91.04c-12.4-1.5-24.31-1.28-37.36-1.5l-5.75-.1c-1.16-.02-1.87.43-3.23.84l-1.32-.85-14.21-.58c22.61-.74,6.35.04,32.95.33,6.63.07,12.47.15,19.25.1-3.96-1.24-9.66-1.57-16.84-1.95l-54.32-2.88c5.24-.05,10.6.05,14.95.23l32.75,1.36c4.26.18,9.2.27,14.24.32ZM1851.69,619.88c.05.34-.43.73.49.79l3.84.27c8.28.58,19.78,1.65,22.29,1.44l-2.56-2.02-36.08-2.6c-1.12-.08-4.13-.05-4.91.05s-1.38.55-1.45.74l18.38,1.33Z"/>
    <path class="cls-1" d="M1440.53,600.61c-19.21.35-37.43,1.27-55.72.65-3.61-.12-7.52-.71-12.1-.51-14.8.65-28.94.39-43-.11,7.07-.2,13.4-.35,19.74-.36l39.26-.06c14.21-.02,27.31.12,41.17-.49,22.17-.97,44.48-1.39,67.3-1.9,13.96-.31,27.33-.86,41.4-.89l70.6-.11c7.95-.01,15.23,0,23.11.17l60.39,1.35,14.63.88,22.26.73c-10.63.44-19.91.23-30.08.04l-37.77-.72c-56.7-1.08-106.24-1.28-162.54.62l-33.15,1.12c12.63.43,23.56.15,36.72-.33-10,2.36-43.03,2.49-57.53,2.71-23.27.36-45.88,1.07-69.36,1.04-16.16-.01-31.72.04-46.6-.82,37.73-.25,73.29-.3,109.92-1.03,8.19-.16,15.18-.46,22.3-.98l-20.97-1.03Z"/>
    <path class="cls-1" d="M1313.55,694.97c4.11-.22,9.74-.45,14.56-.5l64.13-.6c18.12-.17,35.87-.92,54.17-.45,22.52.58,44.25,1.16,67.28,1.26,15.53.07,30.95.4,46.41.63,4.11.06,12.8-.07,16.06-.44l13.54-1.51,4.68-1.79c13.61-.55,24.08-1.78,33.51-3.55,16.02-1.76,21.95-.97,40.99-2.73,3.19-.3,9.34-.99,11.83-1.44l23.14-4.23,1.86-.33c.31-.05,1.96-.04,1.92.04l-.33.61,4.2.13c6.47.2-9.24.81-11.52,3.27-1.81.51-5.65,1.57-8.05,2.02l-14.51,2.71c-8.23,1.54-15.93,2.89-25.96,3.99l-26.81,2.94c-6.15.67-10.46.89-17.42.97-7.1.08-16.03,1.04-23.78.76l-15.3-.56c-9.53-.35-18.3-.56-28.09-.43-14.09.18-27.65-.13-41.64-.18-9.54-.03-19.79.3-29.26-.17-16.65-.82-32.16-.49-48.93-.48l-106.67.07ZM1585.78,694.79l16.06.32c3.52-.67,6.42-1.22,10.01-1.56l36.03-3.33c9.97-.92,19.32-2.01,25.76-4.1l-22.68.92c-2.19.09-5.69.82-7.63,1.06-7.92.98-16.02,2.04-23.69,3.11-24.78,3.46-27.52,1.4-33.85,3.57Z"/>
    <path class="cls-1" d="M1612.27,629.85l7.99-.57c4.74.08,8.39.11,13.23.08l-6.4-1.73,12.08,1.67c1.56.16,4.07.34,4.21.56.18.28-.63,1.02-1.4.92l-4.93-.21c-.9-.04-2.83.3-2.32.45,5.34,1.52,26.93.46,53.19,1.31,29.23.94,56.27,1.35,85.9.5-23.17,2.51-47.96.59-61.67.99l-35.78,1.04c-16.01.46-31.12.98-47.63,1.18,15.15-1.17,30.97-1.48,47.61-2.01l18.63-.59-38.83-.61c-8.23-.13-16.6-.13-23.57.31l1.41.72c.22.11-.81.36-1.42.3l-3.21-.32c-1.5-.15-2.84-.35-3.84-.33s-3.1.36-2.72.54l2.26,1.04-7.22-.76-4.82.21c-5.21.22,13.03,2.06,15.36,3.29l50.85,1.85c37.45,1.36,73.82,1.73,110.74-.02l28.45-1.35c-18.77,2.64-40.82,2.94-62.68,3.32-10.66.19-19.43.37-30.22.12-8.44-.2-16.05-.61-24.7-.76l-34.71-.59-27.19-1.3c-20.48-.98-34.82-2.09-53.2-2.97-31.64-1.51-63.8-1.77-96.47-1.72-19.75.03-38.14.23-57.87-.33l25.13-.31c24.44-.3,48.91-.57,73.3-.18,12.39.2,23.97.74,36.69.81,22.21.11,21.05,2.46,34.95-.08l-9.18-1.68c12.18.64,6.57,1.27,15.59,1.6,1.5.05,5.28-.64,4.6-.89-6.75-2.47-22.92-1.14-31.39-1.58l15.58-.87,13.48-.15-7.68-1.36c7.45.46,10.41,1.58,18.68,1.12l-8.87-.65ZM1615.2,633.02c1.63.21,6.58.01,8.12-.24-4.73-1.24-13.36-1.71-18.83-1.18l10.71,1.41ZM1596.53,635.79c7.11.56,13.4.96,20.99,1.29-3.78-1.63-13.17-2.45-20.99-1.29Z"/>
    <path class="cls-1" d="M818.11,577.71l-65.27.09c-11.93.02-24.15.98-36,.84-15.21-.18-29.32-.45-44.42-.4-11.26.04-21.98-.01-33.1-.59,36.5-.22,71.33.66,108.34-1.22l-21.92-1.83-19.02-.25,56.33-.55c52.58-.51,95.63.46,148.2-.21l-36.9-.7c7.52-.13,15.06-.09,23.42,0,15.12.15,30.64-.15,45.68.28l59.48,1.68c-3.53.4-8.05.08-11.91.07-8.69-.02-17.34.09-26.07-.07-18.24-.32-35.51-.68-53.6-.4,16.48,1.46,31.93.29,48.92,1.31-6.15.19-13,.3-20.14.21l-100.1-1.33c-31.51-.42-64.2.69-98.94.29,8.55.72,18.51,1.76,28.48,1.38,4.66-.17,7.02-.06,11.9-.04l65.1.32,79.13,1.18c-5.96,1.09-29.85.75-39.27.58-22.75-.41-44.65-.66-68.3-.63Z"/>
    <path class="cls-1" d="M733.96,672.73l-42.11,1.07-14.68-.1c33.57-.59,66.23-1.79,100.39-2.75,27.04-.76,52.63-1.29,79.36-2.31,30.18-1.15,59.97-1.99,90.82-2.59l64.46-1.25c11.12-.22,21.97-.95,33.14-.96l26.4-.03c12.28-.01,24.09-.03,36.3-.27,11.13-.22,21.71-.19,32.72-.02l19.03.3,98.02-1.53c-27.93,2.38-44.3,1.45-79.28,2.21-5.91.13-12.14,0-18.02-.24-7.56-.32-14.85.64-21.93.73-24.09.32-47.48.3-71.77.34-26.46.04-51.16.59-77.34,1.27l-100.32,2.61-47.89,1.12-46.65.93-60.65,1.47Z"/>
    <path class="cls-1" d="M1103.96,578.72c.93,0,3.91-.48,3.35-.56-8.49-1.33-5.57.18-14.09-1.86,19.36-.33,38.52-.4,59.14-.3l80.73.36c-16.15.76-32.82,1.15-49.86.89-21.49-.32-42.21-.16-63.73-.46l-19.65-.28c7.75,2.09,38.5,2.54,52.19,2.02l-7.92-1.07c7.38.16,14.65.66,21.86,1.52l126.06-1.13c9.19-.08,39.52-.07,45.29,1.07.65.13-2.66.56-4.01.55-27.13-.22-58.69,0-87.01.29l-64.48.68-51.1-.85c-39.43-.66-78.39-.07-118.07.25l-44.24.35c-15.41.12-30.35.41-45.01-.21,14.17-.78,27.69-.12,41.55-.39l29.84-.58,11.39-1,29.38.46c5.79.09,12.24-.11,18.14-.07l50.25.34Z"/>
    <path class="cls-1" d="M792.88,696.59l41.13-1.88c10.66-.49,21.17-.64,31.48-1.19,10.2-.55,38.55-1.94,47.58-1.78,32.29.58,7.38-1.89,71.6-.55,22.75.47,20.11-1.04,43.41-.07,17.16.71,36.27-.73,52.4-1.13,16.28-.4,32.19-.62,48.77-.78,17.64-.16,34.97.47,52.54.54l33.08.13c-3.2.19-8.38.48-11.75.48l-87.11.08c-17.62.02-32.87,1.08-49.51,1.92-20.36,1.03-92.05.7-116.3.33-11.09-.17-21.4.45-31.95.63-21.5.35-41.5.97-62.63,1.85l-30.61,1.27-27.75,1.02c-22.12.81-44.37,1.14-67.85,1.49,12.78-.81,25.9-.99,39.42-1.48l24.05-.88Z"/>
    <path class="cls-1" d="M627.97,586.5l3.23-.42-15.14.05c17.37-1.11,34.26-.11,51.33.24,26.81.56,38.21.22,64.25,1.52,6.25.31,10.67.63,17.83.19l-3.35-.61,17.6.66c3.6.14,10.3-.16,13.84-.1l37.86.67c2.46.04,7.27.04,9.65.11l37.57,1.1c-10.6,1.07-20.62.03-31.03.19-36.88.59-72.64,1.1-109.87,1.02-24.79-.05-48.27.11-73.06-1.01l30.29.08c21.49.06,42.05.22,62.59-.09-20.45-.59-39.5.14-58.94-.33l-44.68-1.07c-18.72-.45-69.21-.44-92.38-1.83l61.24.52c13,.11,25.52-.05,37.86-.31l-16.68-.6ZM662.89,586.84c27.53,1.84,34.54,1.52,60.77,1.47-12.03-1.2-49.88-1.39-60.77-1.47Z"/>
    <path class="cls-1" d="M1575.16,628.6l-3.9-.76c-.87-.17.7-.7,1.58-.91l6.88-1.6-4.68-.46c-1.1-.11.57-.64,1.67-.89,7.94-1.82-1.39-2.72,11.78-5.02.92-.16,3.66-.76,2.83-.93l-4.65-.94c2.44.28,7.48-1.1,5.73-1.56-22.81-2.03-19.9-1.25-44.81.13-9.87.55-22.8.66-30.1,1.91-5.78.99-9.84,1.66-16.35,2.61l-7.69-.59c-6.89.31-13.92.83-21.18,1.43l-13.68.22c-5.81.1-10.5.7-15.64.38,11.21-.59,21.68-.91,31.86-1.64l20.18-1.43c30.11-2.14,8.8-1.74,32.96-2.99l23.11-1.2,26.13-1.37c-.41-.92,1.07-1.77,6.16-2.23l24.03-2.15c18.51-1.66,38.42-2.68,58.69-3.45,11.84-.45,24.51-.02,36.88-.13-38.22,2.65-49.54.64-85.07,4.41-5.81.62-15.12.44-19.93,1.64-.33.88,2.8,2.43,5.39,3.29l13.63.86c12.21.77,24.98.74,39.09.39l-37-2.98c9.63-.08,16.77,0,25.07.11-2.1,2.01,12.35,1.49,25.16,3.72-16.86.03-32.2.29-48.47.69-10.97.27-17.84.86-22.91,2.72-2.06.76-11.99.92-10.08,2.4,10.61-.69,20.04-1.79,32.4-1.66l-27.8,2.4c-3.92.34-9.51,1-13.49,1.44.28.34,2.69.68,3.6.54l4.92-.76.09,1.22c31.44-3.54,62.51-4.39,99.48-4.17-37.37,1.04-76.59,1.6-106.59,6.52l-4.94,3.43-.33-2.65Z"/>
    <path class="cls-1" d="M1886.52,603.58c-31.87-2.05-51.12-1.46-67.44-2.48-27.27-1.72-41.04-1.4-74.85-3.2-32.72-1.74-64.43-3.44-97.86-4.75-15.74-.61-31.02-.93-47.14-1.32-11.88-.28-23.86.1-36.89.3-16.25.25-31.5-.29-46.7-.23-21.48.09-41.6.39-62.96-.04,5.69-.73,12-.57,18.56-.67,18.26-.26,35.78-.38,54.15-.25,45.84.33,42.42-1.29,78.07-.42,40.74.99,79.74,2.57,119.4,4.68,24.08,1.28,47.1,2.23,71.27,3.23,13.12.54,25.12,1.34,37.77,2.1,23.41,1.42,22.16.79,49.69,2.14,12.58.62,26.35.69,39.5,1"/>
    <path class="cls-1" d="M622.95,592.78c-9.77-.39-18.76-.74-26.3-1.63l77.88,3.48c-18.11.04-33.81-1.14-51.58-1.85Z"/>
    <path class="cls-1" d="M371.14,588.47l15.66.35c-12.5-1.18-25.03-1.38-38.44-2.01l23.53.19-10.3-.65c18.7-.65,36.14.41,54.86,1.35,28.39,1.42,58.62,1.78,87.76,2.05,1.43.51,3.93.87,7.2.99l26.14.99,29.57.97c37.33,1.23,40.69-.17,86.59,1.94,9.28.43,17.55.77,26.47,1.47l-45.66-.71c-23.86-.37-47.54-.4-70.82-1.29l-35.32-1.35-52.94-2.12c-9.03-.36-19.02-.58-28.32-.81l-51.46-1.25c24.88,2.18,48.89,3.85,71.37,6.68l-25.28-1.92-.63.83-35.63-2.78c-11.62-.91-22.44-1.74-34.35-2.94Z"/>
    <path class="cls-1" d="M1027.24,590.57c8.93,1.05,19.66.76,29.54.69l76.14-.48,121.46.34c1.35,0,5.04-.33,4.59-.45l-3.14-.83c12.68.68,22.27,1.7,36.49,1.2l-10.17-1.09,8.28.16.81-.4c1.13-.56,16.06,1.59,36.78,1.75l46.54.35c-33.72,1.39-74.34-.14-110.42.39-53.9.79-95.7-.54-145.84.42-3.85.07-5.82.34-10.19.17-56.13-2.16-111.61.03-166.68-1.04,29.19-.96,56.6-.29,84.51-.71l-7.1-1.06c2.83.05,5.42.24,8.39.59Z"/>
    <path class="cls-1" d="M690.94,554.23c8.93,1.05,19.66.76,29.54.69l76.14-.48,121.46.34c1.35,0,5.04-.33,4.59-.45l-3.14-.83c12.68.68,22.27,1.7,36.49,1.2l-10.17-1.09,8.28.16.81-.4c1.13-.56,16.06,1.59,36.78,1.75l46.54.35c-33.72,1.39-74.34-.14-110.42.39-53.9.79-95.7-.54-145.84.42-3.85.07-5.82.34-10.19.17-56.13-2.16-111.61.03-166.68-1.04,29.19-.96,56.6-.29,84.51-.71l-7.1-1.06c2.83.05,5.42.24,8.39.59Z"/>
    <path class="cls-1" d="M1310.7,687.17c-10.57.09-20.51.43-30.12.19-11.29-.28-22.18-.76-33.5-.78l-90.04-.19c20.3-.79,71.93-.64,91.17-.3,23.12.4,44.86.91,67.79.63,53.11-.64,104.39.18,158.71,1.14-4.44-.48-9.55-.77-15.18-1.15,31.77.32,63.69.39,96.36-.14,9.79-.16,19.31-.78,28.52-1.39,11.42-.76,22.33-1.25,34.32-1.68,5.01-.18,9.71-.74,15.98-.67-12.49,1.62-26.65,2.42-41.55,3.23l-15.03.81,3.09.66-15.36-.23,14.03.96c-5.52,1.78-12.05-.59-26.51-.45l-42.57.43-7.07.72c-6.06.01-13.55.38-19.5.29l-112.7-1.68c-20.23-.3-39.37-.58-60.86-.39Z"/>
    <path class="cls-1" d="M291.95,660.62l24.34-2.17-6.84-.96,16.77.02c2.66,0,5.97-.17,10.15-.31-15.24,2.93-38.24,3.67-55.59,5.74-29.37,3.49-10.41.56-52.56,2.99l-19.08,1.1,11.52,1.25c2.69.29,6.69.3,9.45.36,4.46.09,10.52,1,14.84.28l-2.9-1.04,8.62.72c1.97.17,5.35-.63,7.5-.7l7.7-.25c2.08-.07,1.07-1.08.77-1.51,1.54.29,5.49.75,7.88.6l17.41-1.08-16.63,1.85,9.24,2.09,40.79-1.26-8.84-1.46c7.11-.21,9.29,2.42,19.83.89l-11.89-1.47c-4.36-.54-7.51-.98-13.15-1.85,9.22.39,17.96,1.03,25.27,2.34,1.28.23,3.69.95,2.66,1.19l-5.28,1.22,32.84-1.1c21.36-.71,41.66-1.42,63.44-1.9-8.08.86-16.94.89-25.39,1.09-35.58.85-57,2.57-90.72,3.06l10.3-.88c-9.73.01-15.75.35-24.45.64l-39.8,1.32c-.9-.07-.96-.62-.67-.82.65-.44,10.52.28,9.75-.2l-1.77-1.11,10.85.87c1.19-1.02-10.05-2.68-11.32-2.15l-1.97.83c-2.17-.12-9.01.01-9.96.23l3.12,1.22c-4.67-.62-6.82-1.49-13.45-.74,1.79,1.42,9.77.6,13.19,2.72-2.59-.43-8.8-.54-12.38-.63-5.7-.84-11.18-1.75-21.78-1.06l6.67-.7-24.88-2.58c-2.37-.25-8.87-.08-11.74-.18,21.25-1.93,28.97-1.9,53.05-2.84l-6.04-1.39c10.7.57,20.36,1.24,29.12-.09-11.05-.45-19.74-.79-29.16-1.49,12.62-.63,21.2.57,32.7,1.23,5.83-.18,13.02-1.44,18.44-1.92Z"/>
    <path class="cls-1" d="M1710.7,696.24c-8,.8-12.2,1.06-21.44.87-5.62-.11-13.93.63-19.93.85l-30.71,1.09c-4.36.15-10.12.18-14.86.23,11.25-1.02,24.39-.75,36.46-1.63,10.07-.73,22.98-1.41,30.79-2.38,9.78-1.21,17.26-2.06,29.15-2.41,18.92-.56,38.94-3.06,52.61-3.49,21.5-.67,41.65-1.49,62.45-2.67,13.06-.74,26.76-.92,39.89-1.48,11.98-.51,21.42-1.66,35.12-1.07,5.55.24,11.83-.17,14.99,1.28-1.89.21-6.93.29-9.33.03-13.01-1.44-12.38.94-36.43.53-4.26-.07-6.62-.59-11.05.03,3.61.58,30.84.96,24.66,2.15-17.78-.11-29.69-2.09-44.48-1.28l-46.38,2.55c-2.01.11-5.56.77-7.74.93-24.36,1.87-51.4,3.36-77.27,4.67l8.71.65-15.21.55Z"/>
    <path class="cls-1" d="M838.51,674.94l-37.65,1.62c-17.58.76-35.66.52-52.96.55l21.42-.74,35.27-1.41,82.48-2.53c16.88-.52,34.37-1.14,51.5-1.26,31.01-.21,59.04-.79,89.99-1.47l61.9-1.36c1.58-.03,4,.26,4.46.39.62.18-3.34.61-4.64.51-4.64-.39-11.88.66-16.22.9-15.29.81-31.7.73-47.67,1.2-40.43,1.18-49.16.62-86.27,1.32l-67.06,1.27-34.55,1.01Z"/>
    <path class="cls-1" d="M948.75,566.2l52.36.41,21.36-.04c14.62-.03,28.2.26,42.81.48,23.45.35,46.82.32,70.19.04,7-.08,14.17-.58,21.06-.41,32.08.79,31.71-.15,67.31-.25l55.03-.17c-4.12.84-10.14,1.21-16.25,1.26l-47.17.4c-10.2.09-19.85.62-30.28.53-15.73-.14-30.66.45-46.19.34l-35.82-.25c-22.3-.16-42.12.03-64.38-.49-21.39-.5-43.11-.02-64.31-.98l-25.73-.85Z"/>
    <path class="cls-1" d="M1068.67,603.15c-4.25-.13-7.53-.99-10.59-1.8-24.96.11-50.78.46-75.63-.1-9.21-.21-17.91-.57-27.37-.67-10.73-.12-20.63-.3-31.46-.75,21.86-.11,43.33.1,65.95.29,20.59.18,40.22-.24,60.69-.23h21.79s-3.31-1.13-3.31-1.13c7.15,1.13,9.87,1.16,16.93.95,24.55-.75,48.11-1.44,74.53-2l-20.6,1.23c18.08,1.46,35.79.3,53.91.22l55.74-.24c19.39-.08,37.62.02,57.06.66-16.65.58-32.22.4-48.84.3-16.86-.1-32.64.39-49.46.36l-25.99-.05c-13.97-.02-28.47.23-41.66.18l-3.36-1.58c-9.51.23-19.01.63-28.12,1.05l-22.44,1.04,11.08,1.59c10.94-.68,19.61.41,27.94,1.88-6.63-.25-12.9-.97-19.57-1.82l-8.43.45c-24.24-2.2-4.38-1.71-35.57-1.65l6.8,1.79Z"/>
    <path class="cls-1" d="M1311,630.39c9.77.25,48.32.51,54.26-.85l82.68-.8c11.07-.11,21.2-1.07,31.39-.82l-15.84.88-61.49,1.59c25.21.11,28.15,1.58,50.79,1.4l5.57-1.1c11.35-.02,23.04-.66,34.14-.49l36.11.55c6.83.1,12.43.09,19.23.31-3.17,1.9-39.02.77-47.93.55-10.25-.26-21.42.04-32.16.17l-3.81,1.06c-10.53.51-20.04-.13-30.54-.52-19.98-.76-40.41-.49-60.87-.73-10.77-.13-20.63-.14-31.27.1-13.52.31-26.34-.65-39.49-.84l-54.42-.78c10.92-.72,22.7-.72,34.79-.42l28.88.74Z"/>
    <path class="cls-1" d="M1948.12,635.11c-38.61,2.59-42.94.46-34.07.4"/>
    <path class="cls-1" d="M1900.02,654.65c-6.93-.01-13.91.64-19.76-.51l29.69-.41"/>
    <path class="cls-1" d="M1428.46,613.48l12.7-.64c11.29-.56,22.22-.87,33.27.42,2.66-.38,5.92-.9,7.81-1.05l5.7-.43c1.07-.08.26-.6.1-.78l12.05.02c-3.93-.71-5.71-.92-9.16-1.32l20.05.68-5.64-1.49c6.9.33,15.59.83,22.73.45l24.53-1.32c15.07-.81,37.47-3.8,76.33-4.21-1.62.33-5.84,1.18-8.39,1.29-15.55.68-30.11,1.48-44.47,2.68l-46.95,3.93c-13.58,1.14-29.5.82-41.58,2.84-29.71.21-20.97,1.15-41.09,1.71-16.88.47-32.18,1.36-49.57,1.5l25.29-1.28c17.38-.88,33.61-1.7,49.54-3.09-15.4-1.76-25.35.34-43.25.08Z"/>
    <path class="cls-1" d="M936,562.18l24.36.9-16.8-1.89-68.57.43c-5.76.04-13.75-.75-20.18-.9,25.11-.71,47.67.2,71.39-.7,11.62-.44,23.81.27,35.67.31l48.99.15c5.92.02,11.98.25,18.32.41-26.23.45-23.99-.4-54.75-.07l-28.02.3,40.31,2.57c31.94,2.03,33.96-1.02,61.5,2.29-7.03.83-9.9-.94-14.19-.97l-28.88-.2-.81,1.1c-7.24-.31-15.07-1.09-21.7-1.14l-16.42-.11-65.38-.24c-17-.06-33.57-.31-50.11-.1-16.23.2-31.55.22-46.99-.3l56.2-.25,36.47-.03-10.64-1.19c6.56-.14,11.97.75,16.8,1.18l48.04.04-14.62-1.62Z"/>
    <path class="cls-1" d="M1186.37,629.23l35.56-.95,42.87-1.28c15.21-.45,29.64-.93,45.29-.98,10.86-.03,21.93-.08,32.56-.48,24.21-.91,47.3-1.64,71-2.16l-23.51,1.6c13.39.57,29.64-.76,43.55-.42-5.52.6-11.27.82-17.84.9-19.01.23-37.45.53-55.74,1.47-8.3.42-16.91.89-25.52.93l-62.23.32c-14.75.08-27.77.28-41.5,1.27-5.21.38-44.04,1.42-44.51-.24Z"/>
    <path class="cls-1" d="M1238.09,562.24l-98.95-.1c-10.63-.01-20.67-.25-31.9-.57l54.9-.99c11.4-.21,23.15.28,34.45.25,12.69-.02,24.57-.19,36.9-.13l55.27.28c12.25.06,23.91.3,36.12.3,23.83,0,46.27.03,70.03.43-11.27.71-21.86.56-33.21.42-8.97-.11-17.84.17-26.96.17h-92.83c8.24.44,15.95.41,26.62.55-4.57.34-11.28.55-17.37.43l-21.69-.44,8.63-.6Z"/>
    <path class="cls-1" d="M1153.37,640.6c-7.13-.25-47.21.01-60.41-.99l80.7-.08,16.35.34h51.09c44.41,0,87.03.07,131.36.68,33.7.47,65.69.54,98.6,1.97,3.07.13,9.01-.16,11.98-.06l38.63,1.32c10,.34,19.62.84,29.53,1.28l34.5,1.54c7.35.33,41.91,1.6,47.91,1.72l65.18,1.3,65.11.32c-39.45,1.76-85.38.3-126.73-.79-19.08-.5-36.94-.84-55.37-1.8-22.51-1.18-44.37-1.91-67.39-2.77,2.19.08-29.95-1.76-32.18-2.03-6.33,1.21-13.16.84-21.03.65-22.92-.55-45.42-1.04-68.36-1.3l-43.33-.5c-28.86-.33-56.57-.88-85.48-.86l-47.7.03-44.36-.39,2.76,1.17-21.33-.76Z"/>
    <path class="cls-1" d="M1240.33,588.37l-19.17-.16c64.87-1.16,105.37,1.04,174.8-.93,49.66-1.41,39.8.31,89.87-.06l88.27-.67c4.5-.03,8.52.11,13.04.4l-15.62.5,29.22,1.41c-14.92.77-27.23-1.03-41.17-1.28-15.72-.28-31.41.02-47.56.19l10.06.66-29.67-.1c-17.21-.06-33.54-.08-50.76-.45-16.79-.36-99.74,1.62-131.52,1.27l-69.8-.77Z"/>
    <path class="cls-1" d="M1688.98,693.3l29.94-3.01,32.2-3.14c-5.86-.35-9.64.26-14.03.63l-14.73,1.24c-4.37.37-11.57.51-15.93.65,34.71-4.64,90.19-6.95,132.01-8.79,17.87-.79,35.02-1.74,54.03-1.32-15.3.86-29.45,1.45-44.42,2.15l-63.62,2.99,27.22-.17-28.42,1.52c-17.26.92-33.98,1.84-49.63,3.5l-30.43,3.23c-15.2,1.61-30.82,2.89-46.5,4.12,10.52-1.56,21.34-2.51,32.3-3.61Z"/>
    <path class="cls-1" d="M414.58,652.22c23.07.79,6.61,2.88,44.5,1.12-3.55-.37-4.94-.47-.17-.56l10.25,1.78,5.93-.33c1.92-.11-13.52-2.16-16.36-3.09,36,2.91,5.55,3.16,57.42,1.51l38.12-1.21,50.27-1.46c-15.55-1.21-29.13-.03-43.1-1.46l38.63.08c16.04.04,31.68.25,47.57.71l42.95,1.26c-18.23,1.09-35.54-.69-62.31-.06l-56.1,1.33c-13.47.32-25.87.23-39.43.77l-44.99,1.79c-1.56.06-3.33.78-2.81.81-6.09-.48-13.91-.56-20.67-.4.64-.11-1.42-1.12-3.28-1.05l-28.11,1.17c-.95.04-4.63-.03-5.44-.01s-.84.39-.96.45c-16.29-.06-45.29,1.63-65.11,1.53l68.51-2.51c-6.43-.86-10.48-1.28-15.33-2.18Z"/>
    <path class="cls-1" d="M1887.49,595.99l-56.63-.19-44.19-.26c.96-1.86-6.59-1.03-10.84-2.3-.87-.26,4.17-.78,5.86-.73l32.94.9,13.33.27-22.92.21,8.77,1.1c9.58,1.21,29.62.33,43.49-.02l-6.22-.79c9.32.14,20.38.89,30.77.87l42.28-.08"/>
    <path class="cls-1" d="M1105.72,608.47l36.63-.35,36.31-.61,80.45-1.27,53.93-.16,55.18-.83,24.06-.18,62.77-.45c-31.7,2.2-46.57,1.79-77.64,2l-52.6.34-75.54.19c-28.34.07-55.52,1.07-83.7,1.45-20.12.27-39.58.88-59.85-.13Z"/>
    <path class="cls-1" d="M1662.8,666.64c23.34.71,45.14.62,68.75-.25l-19.22-.76c11.11-.24,21.48-.13,33.51,0,3.33.04,9.48-.81,12.77-.88,5.99-.12,11.82.03,18.47-.63l-11.85-.63,33.28-.13-24.08-.88c12.54-1.09,22.19.79,35.98.24l-17.32-1.02c15.35.36,30.63,1.43,46.32.88l13.13-.46,46.05.19c-22.03.89-44.29.95-67.03,1.52l-39.12.97c-12.75.32-24.84,1.31-37.67,1.75-10.18.35-21.34.16-31.17.61-34.1,1.57-30.89,0-61.53.78-9.03.23-17.65.16-25.05-.57,8.81-.36,13.34-.69,19.95-1.19,8.75-.66,18.86-.84,27.66-1.24l-5.2.72,5.58.29c-8.53.03-15.12.03-22.23.67Z"/>
    <path class="cls-1" d="M576.94,603.02c3.71-.17,8.13.2,12.63.31l61.86,1.64,57.48.93,57.76.64,60.14.24c20.8.08,40.1.15,60.82-.18,17.53-.27,34.99.31,52.54.44,6.4.05,13.09-.38,18.65.46-40.31.43-33.2-.65-77.82.19-11.71.22-24.02.32-35.93.35l-36.32.08c-43.51.1-108.31-.56-149.82-2.46-12.14-.56-25.22-.83-37.95-1.1-14.96-.32-29.64-.25-44.04-1.55Z"/>
    <path class="cls-1" d="M904.74,646.24c-8.29.13-57.31,2.78-77.82,2.12,17.84-1.68,37-1.15,55.85-1.74,12.6-.39,24.75-.9,37.54-1.16,28.93-.57,58.36-1.03,85.85-.45l-14.62.38c6.06,2.03,75.14,2.01,88.27,2.05,16.09.06,31.57-.17,47.71-.28l42.81-.3,85.9-.33c-7.82.72-16.2.83-25.18.8-34.36-.08-67.44.31-101.65.85-8.44.13-16.68-.08-24.85-.16-9.18-.08-18.62.06-27.43-.21-27.24-.84-7.98,1.65-64.73-.2l-19.18-.62c-1.43-2.14-25.04-1.75-33.14-1.62l-55.35.86Z"/>
    <path class="cls-1" d="M441.77,573.51l-15.47-3.36c18,.14,38.82,1.14,59.66,1.3,24.65.19,30.42,1.1,52.03,1.76,36.44,1.12,72.8,1.09,109.75,1.13,7.39,0,13.99.12,21.84.28-9.58.73-19.36.75-30.11.77-29.4.06-57.83-.05-86.94-.74l-52.72-1.25c-14.78-.35-30.25-1.49-43.72-.88-3.37.15-7.2.24-12.2.22l6.57.61c-.94.16-7.28.47-8.7.17Z"/>
    <path class="cls-1" d="M760.67,611.04l119.59-1.46c10.18-.12,43.22.19,54.62.33l88.14,1.05c16.15.19,31.01.8,47.53,1.31-5.58.54-10.73.07-17.08-.04-68.46-1.25-136.2-1.42-205.03-1.26-11.41.03-21.95-.27-32.81-.02-26.11.61-51.05,1.14-77.69,1.03,6.74-.63,13.82-.82,22.74-.93Z"/>
    <path class="cls-1" d="M1704.36,590.45c23.23,1.95,18.54.28,29.24,1.53,7.08.83,11.99,1.39,21.35,1.85-2.42-.94-4.42-1.26-7.43-1.87l15.25,1.34,18.71,1.64-19.05-1.01-1.92,1.62c20.72.92,41,1.81,62.19,2.14l53.72.83c14.64.23,28.39.26,43.64.23l-10.74.72,15.68.51c-29.26.77-57.72,0-87.36-.69-13.79-.32-26.62-.57-39.82-1.25l-18.19-.93-48.74-2.29c-6.31-.3-12.27-.66-18.31-1.03,10.7-.29,35.61,1.83,40.35.96-26.11-3.15-24.9-1.01-40.19-3.13l-8.39-1.17Z"/>
    <path class="cls-1" d="M1134.05,668.32c16-.52,30.53,2.4,50.27,1.16l-10.81-1.08c9.56-.25,18.65,1.69,25.48.59l-23.5-1.82c17.26.32,29.38,2.1,46.42,1.68l-15.6-1.12,33.46,1.15c3.41.04,10.34-.51,14.31-.51l133.14.02c27.89,0,43.82,1.5,68.95,1.46,5.49,0,10.84.07,16.78.21-8.53.55-17.46.45-26.8.18l-27.91-.83c-5.9-.18-13.08-.07-19.43-.17-8.23-.13-18.05-.92-26.09-.59-8.83.36-16.55.19-24.46.33-11.11.19-21.62.71-33.35.63-19.12-.12-37.9-.55-56.57.02l-31.41.97c-7.5-1.07-14.52-1.08-22.21-.25-4.09-.07-10.97-.18-15.09-.12l-25.51.36c-3.54.05-5.94-.37-9.3-.69-6.56-.64-13.84-1.06-20.77-1.57Z"/>
    <path class="cls-1" d="M880.86,684.19c-8.64,1.21-14.11.99-22.72.96-21.7-.07-42.42,1.2-64.54.37l37.83-1.32c19.83-.69,39.33-1.19,58.82-2.19l55.3-2.84c16.88-.87,33.25-.53,50.65-.95l73.61-1.77c-6.15.66-13.86.85-21.77,1.02-22.57.49-33.53,1.31-61.71,1.82-8.19.15-16.51.12-24.31.41l-17.93.67-48.95,2.48c-3.99.2-11.04.88-14.28,1.33Z"/>
    <path class="cls-1" d="M1398.55,570.71c-21.22.39-19.94.48-42.57,0l8-.25-2.08-.76-27.71.09c4.66-.47,11.03-.68,16.94-.7l85.69-.34-8.65-.59c36.42-.66,71.08-1.26,108.13-1.44-7,1.84-16.88.6-25.94,1.34l8.72.3c-10.84.47-21.41.71-33.24.8l-29.5.22-69.23.37,15.09.39-31.47.23,27.8.33Z"/>
    <path class="cls-1" d="M678.78,656.2c18.17-1.7,70.04-1.29,90.57-1.05,15.45.18,31.34-.19,46.61-.51,10.73-.22,21.2-.93,32.13-.95,20.12-.03,39.31,0,59.21-.37,18.7-.34,36.68-.66,54.34-.25l-7.65.37-89.95.97c-22.19.24-42.72,1.45-65.08,1.51l-120.17.28Z"/>
    <path class="cls-1" d="M277.96,652.62l13.38-.9c.65-.04,3.33-.32,2.96-.39l-3.19-.67c12.76.38,24.08-.16,36.03-1.15,13.92-1.15,29.73-.87,44.71-1.73,3.15-.18,8.67-.12,11.6-.29,13.48-.78,27.38-1.67,41.87-2.04l67.75-1.71c17.59-.44,34.22-.79,51.45-.73-9.76.92-19.52.92-29.69,1.11-18.4.34-36.07.73-54.4,1.38l-65.76,2.36c-29.32,1.05-56.62,1.74-86.1,3.5l7.11,1.16c-23.81-1.69-16.33-.15-37.71.09Z"/>
    <path class="cls-1" d="M333.78,691.76c-23.54.59-47.09,2.65-70.97,3.35l25.49-1.88c16.18-1.64,33.73-1.59,51.33-2.15,22.56-.72,44.23-1.66,67.67-1.29,10.48-1.09,21.69-.94,33.46-1.2l73.32-1.6,20.47-.46c-9.23.94-19.07.96-29.71,1.19-14.09.31-28.79.6-42.18,1.25-65.29,3.17-76.64,1.48-128.88,2.79Z"/>
    <path class="cls-1" d="M805.24,632.19c32.45-1.92,47.48-2.23,78.77-2.26-4.11-.52-1.76-.37,1.4-.6l44.97-.44c11.51-.11,22.08.37,33.1.87,16.19.73,35.97-1.39,38.56.38-13.1.81-26.55.74-40.38.55l-36.36-.51c-5.49-.08-11.04.57-15.78.72-25.94.8-45.95-.86-84.26,1.15-6.82.36-13.43.41-20.03.16Z"/>
    <path class="cls-1" d="M143.21,718.91c-11.22-1.01-11.38-.21-20.78,1.23-2.13.33-8.11-.94,15.92-3.12l-3.96-.68c-.64-.11,2.24-.63,2.24-.81-2.12-.32-7,0-10.32.33-13.78,1.34-2.49,5.15-9.35,3.07l-5.93-1.8c7.67-2.38,22.22-2.32,18.04-3.84,4.82.98,12.19-.22,18.07-.37l15.74.42-18.33,1.39c10.57-.19,20.21-.54,29.75-1.1l16.11-.95c-3.96,1.55-3.21-.1-17.19,1.88-3.41.48-6.55,1.11-8.92,1.71l-17.31,1c5.34.24,8.47.28,14.01.38-3.19.16-7.68.48-8.69.89l2.91.63c.44.1-1.48.39-2.18.59,5.3,1.21,11.86-.3,9.34,1.26-4.8-.58-9.94-.67-14.55-.35l6.65.33c-1.73.53-11.08.63-11.59-.02-.12-.16,0-.73.04-.88.05-.21-2.69,0-4.82.1l5.11-1.29Z"/>
    <line class="cls-1" x1="1933.46" y1="574.6" x2="1942.2" y2="572.64"/>
    <path class="cls-1" d="M1162.8,675.94c-25.66.49-50.32.85-76.66.66,35.2-1.25,70.72-1.38,107-1.7,35.15-.31,36.03-1.13,72.39-1.22,17.51-.05,33.78-.01,51.07.23,24.03.33,47.49.25,71.15,1.88-6.18.46-12.19-.14-18.89-.48-9.24-.47-19.58-.15-29.43-.37-38.54-.85-76.27-.89-114.62.4-10.73.36-20.7-.18-31.32.02l-30.7.59Z"/>
    <path class="cls-1" d="M907.69,596.16c9.63-.19,40.09.62,52.49.26l-5.04-.52c21.46.28,43.07.42,65.65.41h36.13s18.33-.08,18.33-.08c-3.52.94-27.71.03-36.63.7,27.51.95,52.45-.35,79.55-.27-22.2,1.11-45.46,1.35-69.53,1.15l-117.06-.95-32.5-.27-23.11-.36,15.1-.24-5.33-1.4c7.24,1.16,12.21,1.75,21.95,1.57Z"/>
    <path class="cls-1" d="M1880.98,584.28l-31.38-1.22c-24.45-.95-47.55-1.93-72.78-1.85-26.47.08-34.14-2.32-42.81-2.49-9.45-.19-17.17-.37-24.4-1.25l17.33.4c10.11.24,18.19.78,27.84,1.5,11.48.86,27.85-.82,35.76,1.13l30.54.96,38.63,1.56c27.72,1.12,34.36.93,63.5.87,4.43,0,9.55.26,13.58.37"/>
    <path class="cls-1" d="M1422.53,675.35c-14.58.08-27.24-.86-40.12-1.16-20.13-.47-39.6-.34-59.33-1.87,16.47-.14,32.95.12,50.1.51l67.64,1.52c31.32.7,61.29.1,91.29-1.94-5.68,1.16-13.2,1.59-21.79,2.2l2.43.29c.49.06.68.12.21.15l-3.54.25c-3.91.16-4.2.11-.79-.49-17.36.37-33.99.26-52.37.35l-33.74.18Z"/>
    <path class="cls-1" d="M1935.28,613.59c-19.63-1-37.83-2.46-55.54-4.24,21.49,2.16-30.75-3.53-13.4-1.9l31.7,1.7c.91.05,3.83-.32,4.58-.23"/>
    <path class="cls-1" d="M856.62,662.64c17.26-.81,32.34-1.7,48.88-2.26l29.98-1.02c10.07-.34,20.58-.35,31.13-.47l-14.81.73c-6.5.32-13.06.34-20,.95,17.09-.16,33.55-.7,51.29-1.08,19.33-.41,37.73-.38,57.44-.33-.2.12-2.79.58-3.98.58l-39.89.03c-5.52,0-11.66.54-16.82.51-19.61-.14-37.38.49-56.17,1.14l-72.61,2.53c-.21-.5,2.47-1.17,5.57-1.32Z"/>
    <path class="cls-1" d="M1417.26,627.17c-15.26.52-30.8.62-46.69.46l81.48-1.73,17.5-.49c24.65-.69,47.92-1.78,71.71-3.01,11.57-.6,22.55-.87,34.25-.75-2.71.45-6.78,1.25-9.3,1.36l-40.83,1.83c-14.53.65-28.44.95-42.78,1.25-22.09.47-43.4.32-65.33,1.06Z"/>
    <path class="cls-1" d="M410.33,557.37l-16.09-.05c2.37-.41,4.96-.54,8.52-.54l69.14-.03c26.9-.01,52.82.24,79.53.56l28.05.33,51.97.75c4.68.07,11.28-.23,16.07-.26l36.7-.17c-28.23,1.3-55.94.83-84.2.45l-18-.24-19.82-.29c-19.54-.28-37.37-.21-58.13-.14l15.38,1.48c-5.19.12-10.52-.13-14.05-.58-10.56-1.34-20.86-1.25-32.61-1.16-20.53.16-40.83-.04-62.47-.11Z"/>
    <path class="cls-1" d="M509.13,622.48l44.65-1.2,39.74-.9c19.35-.44,31.51-1.54,49.52-1.44l-5.26.67,64.17-1.01c9.4-.15,18.55-.23,28.28-.29-22.48,1.03-45.56,1.18-69.23,1.62l-35.34.66-51.97,1.03-59.54,1.31-26.56.48-2.58-.42c.7.12,18.32-.34,24.12-.5Z"/>
    <path class="cls-1" d="M935.48,651.34c30.46-.75,61.42-.71,93.47-.59,7.76.03,14.53-.16,21.99-.41,7.46-.25,15.92.36,24.26.31l99.79-.69c.64,0,3.43-.12,4.3-.16.62-.03.82.35.2.37l-4.28.12c-13.53.38-25.81.75-39.65.77l-162.16.3c-19.12.03-20.5.39-37.92-.03Z"/>
    <path class="cls-1" d="M1351.4,578.87l9.31-.26-9.33-1.02c-.78-.09,1.61-.72,2.32-.64,11.34,1.28,9.19,1.83,25.48,1.65l44.07-.48c42.02-.45,91.12-.26,131.99.57l-29.84.2c-25.57.17-50.05.1-75.62.38-27.93.3-38.5-1.1-60.33.04-20.24-1.75-6.88,1.24-38.05-.43Z"/>
    <path class="cls-1" d="M949.34,586.53c6.18-.83,13.53-.26,20.39-.24l57.77.12,186.14.28c-49.53,1.37-97.37.59-146.72.44-39.67-.12-77.36-.06-117.59-.6Z"/>
    <path class="cls-1" d="M1672.35,673.74l23.41-1.2,26.4-1.35c15.06-.77,29.1-1.44,44.8-1.62,7.1-.08,38.78-1.41,52.99-1.79l69.62-1.83c-8.67,1.38-19.06.74-28.57,1.09-24.07.69-46.96,1.46-70.42,2.46l-29.31,1.24-27.58,1.24-72.14,2.61c3.05-.36,6.88-.66,10.81-.86Z"/>
    <path class="cls-1" d="M1673.07,679.01c4.07-.51,8.46-1.03,13.12-1.36l43.72-3.15,22.25-1.68c13.13-.99,34.67-2.06,50.02-1.22l-14.61,1.4c-13.53,1.3-28.46,1.89-43.75,2.41l-18.06.62c-14.2.49-27.72,1.22-40.07,2.57l-12.63.39Z"/>
    <path class="cls-1" d="M698.53,635.09c-52.53-.48-60.03,1.86-110.49,2.44,8.9-1.23,20.06-.71,29.67-1.42,35.63-2.61,53.09-2.49,92.63-2.07,16.15.17,34.05-1.94,55.73-1.6l-17.09.97c-8.06.46-15.98.72-24.38.97l2.9.98-28.98-.26Z"/>
    <path class="cls-1" d="M264.91,574.95c-3.75-.2-8.71-.72-11.88-1.13-9.25.14-19.15.35-27.41-.28l8.04-.27-3.21-.38c-.45-.05-.61-.18-.44-.25l49.57,1.25-2.84-1.79,13.32,1.86,12.43.4c30.69.99,59.75,2.47,90.03,3.82l13.8.62c-8.86.37-17.57-.1-26.88-.41-16.48-.55-31.94-1.21-47.93-2.15-12.82-.76-25.35-1.34-39.3-1.41,1.14,1.99,20.16,1.57,21.87,2.38-9.79.66-10.11-.83-18.65-.76-.56,0-1.18.34-.72.4l2.47.32c.34.14,1.09.4.7.34s-3.59-.24-3.85-.32c-2.69-.84-11.47-1.82-18.34-1.66l-10.81-.58Z"/>
    <path class="cls-1" d="M859.53,707.45c13.55-.77,28.25-.45,41.05-1.56l-17.43-.16c-39.5,1.89-77.95,2.91-118.71,2.69-4.61-.03-10.08.46-14.99.12,36.18-1.29,72.43-2.15,110.09-2.52,23.1-.23,39.88-2.61,62.65-2.67l-30.03,2.02c22.31-.38,49.02-1.01,69.6-1.98,12.96-.61,26.67-1.22,39.36-.85,12.31.36-48.03.81-44.6,1.54l11.65.4c-29.67,1.8-42.52.63-69.75,2.25-11.42.68-23.57,1.3-35.6,1.6l-26.15.65c-11.5.29-22.18.52-33.04.5,8.04-.71,16.29-.85,24.61-.77,11.25.11,20.12-.63,31.28-1.26Z"/>
    <path class="cls-1" d="M1931.46,569.59l-11.51,1.42c-3.96-.04-4.13-.07-.2-.15l22.43-4.3"/>
    <path class="cls-1" d="M1128.88,625.47c28.83-1.6,47.58-1.78,77.77-3.08,20.83-.9,40.99-1.05,61.9-1.72l18.42-.59,18.14-.12-13.41,1.02c-7.61.58-15.9.45-24.44.6-20.89.37-40.81,1.31-61.36,1.94l-35.43,1.09c-14.15.44-27.68.91-41.57.86Z"/>
    <path class="cls-1" d="M1948.02,556.46c-.54.08-1.39-.13-3.16-.41l-12.85,2.11-30.33,4.46,20.14-.16c-3.49.35-9.84,1.05-13.95,1.2l-16.12.59,4.37-1.33-10.83.18c22.49-3.64,15.32-1.14,42.54-5.66,4.31-.72,10.53-1.37,14.37-2.14"/>
    <path class="cls-1" d="M1889.56,642.21l-15.79,1.18c2.11-.47,6.51-.89,10.72-1.26l48-4.18"/>
    <path class="cls-1" d="M300.24,583.71c-5.64-.15-9.72-.25-12.83-.86,34.14.81,29.16,1.71,66.1,1.37,23.15-.22,45.73-.23,68.66-.07,3.19.02,7.47.67,8.29-.31l18.73.97-13.24.78c-15.42-.93-29.63-1.19-44.9-.77l10.21.67c-24.23.53-49.59.5-74.09-.64-8.78-.41-17.19-.87-26.94-1.13Z"/>
    <path class="cls-1" d="M1024.29,623.55l86.06-1.94c11.45-.26,22.65-.57,34.46-.67,7.14-.06,14.07.06,21.41-.24,11.32-.46,21.9-.81,33.66-1.1-10.15,1.63-22.77,1.87-35.81,2.1l-82.62,1.49c-12.25.22-23.74.06-36.1.45-5.99.19-13.18.07-21.06-.09Z"/>
    <path class="cls-1" d="M1209.99,617.16l-26.33.46c4.09-.3,8.81-.42,13.96-.59l93.22-3.04,75.28-2.75c14.83-.54,29.15-.93,44.69-1.25-10.97,1.23-23.8.51-35.56,1.32-37.61,2.6-60.24,2.67-98.94,3.83l-49.48,1.48c-5.24.16-10.98.43-16.83.53Z"/>
    <path class="cls-1" d="M704.83,691.93c-12.01.51-28.83,2.11-37.06,1.43,17.82-1.67,37.75-2.51,57.72-3.65,16.52-.94,30.99-1.87,48.98-1.7,38.14.34,42.81-1.46,75.51-1.93-31.81,1.95-64.39,2.91-98.4,3.26-7.87.08-16.73.43-23.16,1.14-7.91.87-14.74,1.08-23.59,1.46Z"/>
    <path class="cls-1" d="M602.6,667.25l14.24-.65c-17.91-.41-32.2.52-46.62.1l33.31-.95c16.21-.46,33.01-.41,48.95-1.1,8.93-.39,16.97-.72,25.99-1.01,13.67-.44,25.74-1.8,40.04-1.79-8.11.66-16.29,1.3-25.04,1.91l-14.17.99c-6.82.48-15.31.59-22.71,1-5.21.29-11.92,1-16.86.9-18.78-.39-17.7.71-37.15.59Z"/>
    <path class="cls-1" d="M1541.63,583.5l19.98-.2c33.71-.34,66.41-.18,100.06.37,16.83.28,58.31.88,69.12,2.73l-36.56-1.09-44.28-.99c-41.51-.93-66.9-.02-108.31-.81Z"/>
    <path class="cls-1" d="M1671.29,638.57c-6.42-.13-12.26-.79-15.67-1.56,50.59,3.4,99.16.09,149.36-.16l-37.83,2c-14.02.74-26.81.8-41.34.62l-29.53-.38-24.99-.52Z"/>
    <path class="cls-1" d="M923.09,613c-15.54.07-29.2-.07-43.9-.41,45.7-.81,91.39-.47,137.57.39,17.76.33,34.39.57,51.93,1.48-11.25-.1-22.42-.1-34.1-.36-37.05-.83-73.04-1.26-111.5-1.1Z"/>
    <line class="cls-1" x1="1926.47" y1="697.67" x2="1937.5" y2="696.65"/>
    <path class="cls-1" d="M1099.04,556.32l.07.67,20.46.62c-11.05.23-22.47.23-34.37-.26l8.23-.33-22.05-1c-7.81-.35-17.04-.11-24.32-.55,19.35-.73,38.04-.63,57.62-.45l44.16.42c7.45.07,14.42.28,22.21-.03l2.87.54-31.65-.13c-5.63-.02-10.02-.07-15.41.04,11.06,1.45,28.5,1.95,40.45,3.18-11.69.47-20.66-.8-30.08-1.6l-18.77-1.58c-8.58-.72-20.57-.14-30.29.18l10.87.28Z"/>
    <path class="cls-1" d="M714.25,629.63c-20.3-.39-39.17.55-59.91-.48,27.94-.29,56.41-.15,85.38.21,43.86.56,56.75-.42,98.93.02-1.84.83-76.84,1.15-79.19,1.1l-45.21-.86Z"/>
    <path class="cls-1" d="M1851.33,683.52c16.55-.21,29.92-.51,45-1.02,5.25-.18,5.65-1.29,8.18-1.87l8.37-1.92-7.55-2c6.01.43,11.31,1.04,16.94,1.81l8.96-.29,14.97-.39c-5.98.6-15.88.96-22.61,1.13-.79.11-.69.88.43.88l8.34.02-17.14,1.75-1.2,1.05c-.92.81-60.96,1.6-70.76,1.44,1.88-.33,4.68-.55,8.07-.59Z"/>
    <path class="cls-1" d="M1661.2,618.78c10.29-1.04,21.5-1.29,32.59-1.9,10.76-.59,20.68-1.03,31.87-1.13,20.47-.19,40.1-.43,59.55.26l-35.13.6c-29.91.51-58.06,1.79-88.89,2.17Z"/>
    <path class="cls-1" d="M1914.3,644.26c-.2.31.18.72-.71.78-12.21.91-55.2,3.03-71.31,3.81-4.55.22-9.13.39-12.88.24l59.13-3.18"/>
    <path class="cls-1" d="M1182.69,595.56l-17.38-.42c10.92-.36,20.84.04,31.46.09,42.66.17,84.45-.44,127.32.47-5.4,1.1-12.54.49-19.01.47l-108.01-.33c-4.18-.01-9.32-.15-14.38-.28Z"/>
    <path class="cls-1" d="M509.09,719.66l-68.67,3.44c17.4-1.61,35.28-2.71,54.48-3.58,33.89-1.53,65.51-3.42,97.94-5.84,4.62-.35,33.21-1.44,40.11-1.32-6.26,1.11-20.98.41-41.8,1.9l-13,.93c-22.92,1.64-45.13,3.27-69.07,4.47Z"/>
    <path class="cls-1" d="M1736.63,566.9c-3.08-.13-5.84-.23-8.07-.54,5.59.12,12.85.24,17.74.65,21.75,1.83,42.12,2.88,64.77,4.26l47.02,2.86c.79.05,4.5,0,5.12,0s.47.26-.05.31c-5.16.55-27.88-.54-36.72-1.08-13.27-.82-26.09-1.46-39.29-2.13-23.57-1.19-21.25-3.03-50.52-4.33Z"/>
    <path class="cls-1" d="M156.09,580.47l-18.14-.62c6.82-.22,11.96,0,18.43.12,21.2.38,42.44,1.09,63.26.48,19.42-.56,38.44-.69,58.21.05l59.39,2.21c-17.84.53-50.32-2.02-70.75-1.87l-55.89.43c-18.47.14-35.9-.18-54.51-.81Z"/>
    <path class="cls-1" d="M634.06,659.61c-20.92.69-55.16,1.19-75.24,1.31,12.94-.53,25.17-.76,38.15-.95,10.66-.16,20.45-.52,31.01-.88,28.56-.99,56.4-1.41,84.94-1.72l15.31-.17,19.69-.23,21.24-.29,20.2-.24c-2.71.45-7.1.45-11.75.54l-16.38.31-21.48.3-21.41.28-18.06.28-43.38.7c-7.91.13-15.3.51-22.83.76Z"/>
    <path class="cls-1" d="M1686.83,606.86c41.08-.1,59.06-1.87,104-.85,2.57.06,4.8.64,4.42,1.2l-52.27-.06c-11.18-.01-21.72-.09-32.82.26-7.76.25-14.61.21-23.34-.55Z"/>
    <path class="cls-1" d="M334.07,549.44c4.41,1.23,9.28,1.31,16.62.86l-9.54-2.26c9.77.71,16.24,2.72,23.4,2.88l29.62.68,13.94.3c-2.74-1.13-9.6-1.36-13.76-2.63l24.22,2.86c5.38.63,19.91,2.83,21.34,3.58l-25.84-3.01c-6.33-.74-16.57-.68-24.15-.8l-48.41-.73-2.49,1.66c-1.84-.11-9.68-.84-9.44-.94l1.98-.78-3.03-.46,5.54-1.23Z"/>
    <path class="cls-1" d="M1093.87,566.63c-25.48-.7-41.31-2.98-66.59-3.72,8.79-.22,17.56-.02,27.13.11l23.15.3,32.76.32,61.79.74c9.24.11,18.73-.37,27.66.54-32.54.25-63.18-.44-95.16-.86l-32.68-.43c-7.08-.09-13.53-.16-21.59-.09l30.69,1.95,12.84,1.16Z"/>
    <path class="cls-1" d="M768.98,637.67c18.6-.27,36.96-.06,56.17.21,42.48.58,46.88-1.43,87.34-.76-28.9,1.63-69.04,1.82-100.38,1.38-14.61-.21-28.37-.27-43.13-.82Z"/>
    <path class="cls-1" d="M1024.76,629.51l-15.44-.29c-6.82-.13-12.42-.12-18.36-.59,9.52-.14,17.61.02,26.51.1l44.45.43c13.29.13,29-.98,40.45-.03l13.37,1.1-7.77.09c-1.47.02-1.18.54-1.54.88-7.23-.67-13.79-1-20.66-.9l-.29.74c-4.07-.59-6.26-.91-10.17-.91-17.32,0-32.85-.3-50.54-.63Z"/>
    <path class="cls-1" d="M1708.11,628.48c-3.92-.66-3.13-1.33-2.08-2.56-11.08-.45-21.72.99-32.29-.45,32.89-1.43,68.25-1.83,103.3-1.94l-11.14.45.43.89c-1.87-.51-6.66-.89-10.95-.74l-46.58,1.57-.69,2.79Z"/>
    <path class="cls-1" d="M469.83,669.08l-11.66-.7,36.62.32c2.99.03,9.16-.54,10.91-.77-9.83-.44-16.56-.52-24.49-1.31,6.69-.01,13.75.3,19.94.81,7.71.63,12.63.11,19.8-.3,15.33-.86,31.5-1.25,47.83-1.49l-7.7.84,7.76.28-11.51-.15-35.92,1.69c-6.37.3-14.16.97-20.6.97-16.29-.01-30.52.22-47.58.45,5.38-.32,10.74-.47,16.6-.63Z"/>
    <path class="cls-1" d="M329.7,592.13l-65.04-4.49-19.72-1.28c42.62,1.72,82.38,4.33,122.88,7.19,2.38,1.26-34.79-1.19-38.12-1.42Z"/>
    <path class="cls-1" d="M910.34,633.47c25.7-.45,51.11-.15,77.53.26l60.39.95,17.05.47c-21.24.16-42.22-.15-64.25-.55-20.53-.37-40.28-.46-60.89-.46-10.01,0-19.67-.17-29.82-.66Z"/>
    <path class="cls-1" d="M1647.95,642.21l-20.74-1.59c13.97.29,26.92.8,40.52,1.38l27.82,1.23,40.03,1.51c-5.77.97-12.1,1.21-19.04.9-10.46-.46-21.25-.87-31.12-1.52-12.59-.82-24.23-1.64-37.48-1.92ZM1677.97,643.2c10.86.69,20.53,1.17,31.66,1.37-9.94-1-20.68-1.33-31.66-1.37Z"/>
    <path class="cls-1" d="M386.21,660.47c-10.22.68-18.26,1.22-26.96,1.39,14.1-1.96,28.13-1.88,42.44-2.35l33.77-1.1,29.97-1.58c13.84-.73,28.12-.72,42.74-.89-15.43.88-32.22.89-47.22,2.1-10.9.88-19.56,1.15-31.53.96-7.23.03-15.92,1.14-23.52,1.26-6.08.1-13.95-.16-19.7.22Z"/>
    <path class="cls-1" d="M168.81,710.26c-4.46.85-9.1,1.58-15.42,1.54l9.17-1.04c3.24-1.1,5.96-2.46,11.7-3.31l23.46-3.47c14.8-2.19,29.83-4.13,47.29-5.13-27.64,2.78-23.05,3.48-44.82,6.22-2.81.35-8.55.86-10.73,1.27l-20.66,3.93Z"/>
    <path class="cls-1" d="M322.82,731.45l-4.91.24c-14.71.73,11.27-1.73,12.9-1.82l19.23-1.01c32.34-1.7,10.12.34,44.73-1.7,14.06-.83,27.07-1.69,40.88-2.88-7.11,1.42-16.67,1.92-26.21,2.76-4.22.37-7.92.95-13.13.9-8.45-.09-15.25.43-22.93.75-32.64,1.37-23.4,1.41-50.56,2.75Z"/>
    <path class="cls-1" d="M1940.55,583.03l.95-.47c.16-.08.67-.11.3-.15l-3.75-.37"/>
    <path class="cls-1" d="M825.74,682.68c-40.9-.08-53.36,1.9-87.31,1.39,21.28-.88,41.3-1.49,62.51-2.13,7.15-.21,16.91.41,23.73.08l42.88-2.11c-6.66,1.26-15.92,1.29-25.3,1.66-4.78.19-11.78,1.12-16.52,1.11Z"/>
    <path class="cls-1" d="M337.91,714.17l18.2-1.26c8.07-.56,11.88-2.4,21.29-2.94l-11.9,2.46c19.08-.55,25.79-.99,44.99-1.65,3.43-.12,6.68-.44,10.62-.28-19.63,1.83-50.47,1.86-68.75,3.88-7.54.84-11.45,2.64-23,2.54l7.15-1.74-1.19-.56c-.28-.13,1.81-.41,2.59-.46Z"/>
    <path class="cls-1" d="M1111.96,700.28c13.02,0,24.51-.87,37.13-.34-16.21,1.06-27.43.3-41.35,1.01,17.91,2.1,31.46-1.16,48.19.27-17.76.76-33.96.94-51.1.83-16.53-.11-4.27-1.12-33.3-1.21,12.58-.94,25.81-.57,40.44-.56Z"/>
    <path class="cls-1" d="M424.17,601.31c-41.44-.93-51.92.37-88.86.18,32.64-2.12,82.86-1.52,113.81-.17-8.59.46-16.65.18-24.95-.01Z"/>
    <path class="cls-1" d="M115.32,737.89c10.64.06,21.73-1.27,39.61-1.33-6.38,1.29-16.38-.14-26.95,1.86,15.9.39,35.5-.89,48.34.18l-32.07.43,5.45.54-27.41.16c-1.99-.33-5.95-.69-7.85-.5-2.71.26-6.3.84-7.88,1.23l-2.16.53c-5.81,1.42,1.9-3.15,10.92-3.1Z"/>
    <path class="cls-1" d="M30.55,789.88l5.42-1.57,14.84-1.12-1.08-1.97c-.25-.46,5.28-.92,7.79-.98l18.07-.43c4.81-.11,8.11-.16,11.75.46-14.11,1.27-20.47.71-27.15,1.36-3.44.33,3.86,1.93-4.55,2.57-9.13.7-16.61,1.19-25.09,1.68Z"/>
    <path class="cls-1" d="M1585.99,566.88c21.55-.13,41.21-.24,61.36.61l-30.38.6,30.18.58,24.67.4c-19.21.2-55.99.11-74.32-.96l15.45-.21-26.96-1.02Z"/>
    <path class="cls-1" d="M1510.83,648c6.13-.28,13.01-.17,20.2.14,46.27,1.98,73.41,1.77,117.73,2.98-19.75.27-38.3-.08-57.69-.53l-36.12-.95-44.11-1.64Z"/>
    <path class="cls-1" d="M626.69,647.56c9.29-.14,19.77-.15,30.17.1l48.01,1.15,57.44,1.51c-23.02.21-45.09-.47-67.53-1.04l-68.1-1.72Z"/>
    <path class="cls-1" d="M1742.36,563.37l-3.45.62c31.33.11,53.8-1.62,85.67-1.94-18.56,1.53-80.8,3.34-97.8,2.72-.68-.03,1.11-.66,1.78-.69l13.8-.7Z"/>
    <path class="cls-1" d="M426.22,619.55c-19.43.47-26.15,1.26-41.95,1.29,4.5-.81,53.4-2.54,56.12-2.59l48-.78c-5.42.48-11.01.83-17.19.98l-44.99,1.09Z"/>
    <path class="cls-1" d="M151.53,736.19l9.25-1.32h14.13s-25.7-1.08-25.7-1.08c13.69-1.22,27.13-.04,38.86,1-3.24.21-5.82.37-5.48.58l2.35,1.46c-14.06.36-17.08-.76-33.42-.64Z"/>
    <path class="cls-1" d="M1432.44,697.37l-22.33-.41c27.15-.18,54.47-.01,82.17.64l42.98,1.01c-9.18.22-17.49-.02-26.34-.13l-56.34-.71-20.15-.4Z"/>
    <path class="cls-1" d="M735.98,670.35c-15.4.27-12.35-.37-28.3.13-.62.02-.53-.14-.18-.24,1.91-.55,22.24-.44,32.84-.8,14.99-.52,17.5-2.79,53.21-1.1l-16.33,1.42-.73-.65c-.81-.72-33.49.61-40.52,1.25Z"/>
    <path class="cls-1" d="M509.65,711.56c19.77-1.74,38.58-2.48,61.04-3.46,9.99-.44,19.24-1.08,30.07-1.19-29.45,2.3-59.52,3.72-91.11,4.65Z"/>
    <path class="cls-1" d="M481.53,579.57c-14.73-1.01-28.99-1.59-43.35-2.58l33.69,1.14c17.87.6,34.19,1.93,51.1,3.42l-25.72-.71c-5.29-.15-10.98-.94-15.73-1.27Z"/>
    <path class="cls-1" d="M296.94,592.54c-6.88-.5-34.08-2.68-30.24-3.87,3.56.84,9.04,1.84,13.94,2.11l18.99,1.08.24.96c.06.23,4.7.3,5.98.29l5.91-.02c1.34,0,2.67.85,3.92.96l10.44.87c7.67-.65,15.9.28,17.35,1.67-5.32-.51-9.27-.47-13.34-.09l-13.25-1.21-1.97-.93c-.61-.29-5.52-.51-7.17-.45-5.83.21-7.79-1.14-10.8-1.36Z"/>
    <path class="cls-1" d="M1345.92,670.01l8.29-.38c7.47.3,14.08.18,21.82.11,15.69-.13,31.64.39,47.28.84l28.2.73c-20.32.39-40.23-.42-61.21-.67-6.85-.08-14.47.07-21.48-.1l-22.9-.55Z"/>
    <path class="cls-1" d="M770.17,568.54c-10.23.07-19.19.4-28.85.09,34.05-1.03,68.28-1.04,103.69-1.08,7.91,0,15.66-.68,22.83.04-10.27.3-18.4.4-27.25.46l-70.43.49Z"/>
    <path class="cls-1" d="M69.56,552.5l7.04-1.81,19.08-.59-13.46,1.37c5.83.38,12.73.46,19.88.41l24.24-.18c-6.27.7-14.09.89-22.5.93l-17.74.1-6.93,2.46c1.16-.95,2.7-1.57,4.74-2.44l-14.34-.24Z"/>
    <path class="cls-1" d="M1860.98,639.66c-14.29,1.22-27.96,2.3-43.28,2.54l31.7-2.49c16-1.26,30.82-2.5,48.92-3.33-9.22,1.98-18.17,1.65-37.34,3.28Z"/>
    <path class="cls-1" d="M992.67,662.9l28.65-.6c10.69-.22,22.92-.38,33.81-.28l40.32.35c-13.14.86-25.73.61-38.66.43-15.56-.22-30.34-.15-45.89.29-6.63.19-12.63.21-18.23-.19Z"/>
    <path class="cls-1" d="M1822.67,567.95c37.58-.19,24.8-.89,52.31-2.09l14.91-.65c-.97.89-3.4,1.13-7.12,1.4-18.9,1.35-38.85,2.6-60.09,1.34Z"/>
    <path class="cls-1" d="M741.22,567.54c-10.94-1.12-19.8-.24-37.75-1.09l23.99-.21-9.03-.93,16.34,1.13c23.92.34,46.76.16,70.94.05-2.61,1.13-46.48.73-54.42.62-4.36-.06-7.71.07-10.06.42Z"/>
    <path class="cls-1" d="M498.87,561.02c1.75-1.72-12.85-1.67-15.39-2.62l25.17,2.03,80.03-.16c-5,.2-11.27.46-16.63.48l-73.17.27Z"/>
    <path class="cls-1" d="M737.63,648.04c10.66-.78,38.79.98,54.52,1.05,11.2.05,20.93-.44,31.74.33,4.61.33,10.63.1,15.44.71-20.94-.05-40.89-.24-61.29-.86l-40.41-1.23Z"/>
    <path class="cls-1" d="M0,561.86l.42-2.15c12.54-.73,21.51-1.75,31.83-3.12l-1.43.44c-.29.09-1.55.28-1.03.31l4.72.32-11.93,1.58,5.67.27-28.25,2.34Z"/>
    <path class="cls-1" d="M919.68,569.1l20.76.25,21.44.34-107.38.28c20.91-1.03,42.23-.84,65.17-.86Z"/>
    <path class="cls-1" d="M964.75,569.57c7.82-.13,14.33.06,21.78.11l26.1.2,22.99.31,23.04.31,19.47.32,18.44.39c-9.52.14-19.48.2-29.53.03l-19.93-.32-18.1-.29-21.43-.32-28.02-.28c-4.99-.05-10.16-.24-14.81-.48Z"/>
    <path class="cls-1" d="M124.45,510.42l-8.82,1.45c-1.02.17-4.56.31-5.91.32s-.04-.87-.17-1.15c-1.17-2.51,7.51-3.7,18.32-4.75l-8.1,1.88,9.28.16c-1.07.87-2.5,1.18-7.24,1.92-2.77-.17-1.17-.07,2.63.16Z"/>
    <path class="cls-1" d="M198.33,709.6l7.1-1.72c-7.44-.2-10.33,2.45-27.77,2.3,4.78-.31,8.31-.59,11.59-1.06l19.85-2.84c7.89.93,18.07,1.5,24.91,3.26l-18.21-1.88c-1.35-.14-5.24-.06-5.93.17-2.85.93,9.05,1.21,12.32,2.55l-10.9-.97c-1.82-.16-4.99-.43-6.57-.44-1.58-.01-3.49.36-6.38.62Z"/>
    <path class="cls-1" d="M343.29,579.75l17.47-.02-8.63-.78c10.62.11,22.86,1.13,34.06,1.04,8.75-.07,14.99-.58,23.08.64,4.08.62,10.03,1.2,11.7,2.18-9.69-1.08-16.17-3.31-31.4-2.66l14.87,1.07c-20.78.17-40.69-.3-61.16-1.47Z"/>
    <path class="cls-1" d="M113,517.79l12.3.1c-4.68.64-8.48,1.07-14.21,1.53l-1.68-1.48c-.81-.71-3.08-2.01.09-2.62,7.49-1.46,16.61-2.27,27.64-2.62l-14.47,1.78c-5.37.22-9.16.8-9.32,2.01l13.28-.26c-4.74.39-9.16.89-13.62,1.56Z"/>
    <path class="cls-1" d="M1774.87,611.9c2-.47-2.15-1.49-4.96-1.69l-16.65-1.15c5.38-.3,9.01.1,13.29.52l15.99,1.57c7.78.77,18.92.2,27.28.77-13.21.37-26.01-.09-37.52.63-10.41.65-19.78,1.18-30.14.72l32.71-1.38Z"/>
    <path class="cls-1" d="M1290.56,701.78c-8.67-.42-17.62-1.12-25.17-2.07l8.98.21c2.16.05,5.09-.68,8.1-1.11l29.03,2.13c-6.36.41-11.37.13-17.34-.07l-3.14-.1c-.81-.03-.48.48-.47,1.02Z"/>
    <path class="cls-1" d="M98,787.64c-7.66-.9-19.45-.85-28.26-.15l-5.22-.47,4.57-1.03c13.5.3,34.98.59,45.15,2.16-5.51-.07-9.59-.2-13.34-.1l-29.62.74c7.12-1.49,14.86-.68,26.73-1.15Z"/>
    <path class="cls-1" d="M216.69,705.66l3.34-2.38,15.73,1.21c5.02.39,9.09,1.09,11.75,2.09l-24.01-1.89c4.28,1.75,14.68,1.39,19.72,3.24l-26.53-2.27Z"/>
    <path class="cls-1" d="M1827.69,569.93l27.26.33,30.69.28c7.5.07,14.5-.78,23.38-.88l-6.28,1.29c-25.66.29-50.57.21-75.04-1.02Z"/>
    <path class="cls-1" d="M477.19,707.3c9.38-.76,19.35-1.88,30.05-2.37,8.69-.4,16.42-.7,24.59-1.22,9.94-.63,19.82-1.11,30.48-1.45-13.05,1.33-27.67,1.66-42.05,2.49-14.16.81-26.76,2.29-43.07,2.55Z"/>
    <path class="cls-1" d="M1470.93,582.65c7.99-.52,15.99-.49,24.84-.55l44.48-.33c8.59-.06,16.73-.38,24.75-.07-29.32,1.11-63.8,1.06-94.07.96Z"/>
    <path class="cls-1" d="M794.51,603.21c-6.94-.43-13.64-.96-20.03-1.56l8.38-.29-5.47-.28c-1.1-.06-.44-.54.29-.86l44.64,3.33c-2.93.37-6.01.2-8.78.01l-18.96-1.29-.07.94Z"/>
    <path class="cls-1" d="M573.77,609.71c-3-.71,53.75,2.74,46.44,3.45-16.46-.31-32.73-1.36-46.44-3.45Z"/>
    <path class="cls-1" d="M444.95,591.87l-16.54-1.93,32.07,2.4c13.39,1,25.41,2.22,38.12,3.44-3.28-.04-5.96-.26-9.07-.48-15.27-.94-29.59-2.03-44.58-3.43Z"/>
    <path class="cls-1" d="M558.81,564.9l-48.83-.35,114.45.12c-21.91.74-43.39.38-65.61.22Z"/>
    <path class="cls-1" d="M1222.84,637.23c18.88-.97,36.91-.27,55.97-.12,3.96.03,8.84-.66,12.58.1-18.92.84-36.6.75-55.4.2l-13.15-.18Z"/>
    <path class="cls-1" d="M1661.4,603.09c-13.01,0-22.66.44-34.29.19,20.92-.89,42-.97,64.08-.8l13.58.1c-.16.07-3.16.54-4.16.54l-39.21-.03Z"/>
    <path class="cls-1" d="M312.4,689.6c6.71-.71,15.64-.78,24.2-.89l18.57-.24c17.81-.23,34.64-1.03,52.7-.69l-62.49,1.39-32.98.43Z"/>
    <path class="cls-1" d="M1581.53,581.73c8.69-.19,17.12-.18,26.04-.13l24.54.48c13.99.27,27.04.67,41.47,1.15-3.73.22-7.76.03-12.17-.05l-79.88-1.44Z"/>
    <path class="cls-1" d="M222.05,532.67c1.56-.76,4.29-1.5,7.84-2.03l10.03-1.49c6.8-1.01,8.22-2.09,10.2-3.82,1.03.68,2.07,1.8,2.05,2.36-5.93,2.58-17.44,3.75-30.11,4.97Z"/>
    <path class="cls-1" d="M1287.67,565.87l24.12.1c5.48.02,11.17.14,16.62.23,11.93.19,23.42-.52,34.79.41-12.68.2-24.28.14-36.65.03l-27.8-.23c-4.14-.03-7.64.06-11.09-.54Z"/>
    <path class="cls-1" d="M91.4,738.49c0-3.12,23.92-6.37,44.96-6.75-15.31,1.43-32.54,3.36-44.96,6.75Z"/>
    <path class="cls-1" d="M612.61,562.69c-3.4,0-7.72.24-9.38.07,7.95-.32,15.89-.61,23.66-.62l70.15-.12c-4.85.33-10.76.63-14.83.63l-69.59.05Z"/>
    <path class="cls-1" d="M463.73,614.77c22.65-.54,35.13-.41,59.82.6-17.13.6-33.63.24-50.66-.31l-9.15-.3Z"/>
    <path class="cls-1" d="M145.1,643.33c8.21-3.24,14.28-3.59,29.75-5.04,10.4-.98,20.51-1.86,32.43-1.9-15.54,1.05-30.29,2.23-45.1,3.71-6.61,1.04-10.99,1.93-17.09,3.24Z"/>
    <path class="cls-1" d="M679.03,602.84c-.67-.57-3.93-.63-7.44-1.01l11.99.8c24.97,1.67,24.32.5,48.11,1.73-8.34-.04-17.51-.07-25.84-.3l-56.77-1.55c10.19-.22,17.77.35,29.95.33Z"/>
    <path class="cls-1" d="M207.05,590.82c-2.61-.3-7.21-.31-7.97-.82,5.89.43,11.37.81,16.7,1.3l13.98,1.29c8.95,2.42,21.86,3.99,36.74,4.63-8.04.29-14.27-.52-20.52-1.35l-11.5-1.51c-5.55-.73-11.05-1.67-16.76-2.32l-10.67-1.22Z"/>
    <path class="cls-1" d="M250.7,589.04l-53.37-2.88c24.13.34,45.83,1.76,67.27,3.19-4.94-.05-9.82-.09-13.9-.31Z"/>
    <path class="cls-1" d="M368.22,575.96c18.11-.3,59.58,1.88,75.91,3.19l-50.63-2.21c-8.63-.38-16.85-.66-25.27-.98Z"/>
    <path class="cls-1" d="M689.13,593.01l71.63,2.91c-25.9-.19-49.12-1.05-71.63-2.91Z"/>
    <path class="cls-1" d="M26.92,552.31c.7,1.76-14.05,3.91-21.91,4.41.5-2.34,9.66-3.89,21.91-4.41Z"/>
    <path class="cls-1" d="M29.21,540.38c.26-1.82,8.97-2.06,14.43-2.95,5.27-.86,9.87-1.75,15.65-2.8-5.05,2.1-12.71,5.02-30.08,5.75Z"/>
    <path class="cls-1" d="M1265.59,575.83c8.76-.55,17.52-.6,26.55-.6l36.21-.02c-9.28.61-19.29.82-29.74.78l-33.02-.15Z"/>
    <path class="cls-1" d="M673.92,559.97c3.08,1.04-67.17.56-73.7.46,23.82-.5,48.49-.54,73.7-.46Z"/>
    <path class="cls-1" d="M130,751.25l-38.77.82c3.63-.61,9.58-1.25,14.08-1.24l25.65.08c1.29,0,4.02.53,5.18.63l-8.79.95c-2.27.24-5.73.3-9.69.18l12.33-1.42Z"/>
    <path class="cls-1" d="M839.25,658.75c-6.36.19-11.69.38-17.51.15l55.71-1.78c12.71-.41,24.83-1.41,38.27-.94-18.14.3-22.6.93-37.87,1.4l-38.61,1.18Z"/>
    <path class="cls-1" d="M808.58,616.22c16.33-.53,31.68-.67,47.96-.81,7.96-.22,15.87-.48,23.56.01-24.75.72-47.96.99-71.51.79Z"/>
    <path class="cls-1" d="M1045.35,584.62c-2.23-.01-6.71-.29-9.89-.52,7.5-.04,14.97-.03,23.17.02l59.25.37c-9.9.15-20.16.36-29.37.32l-43.16-.2Z"/>
    <path class="cls-1" d="M485.12,624.92c-3.45-.42-7.28-1.38-13.25-1.32-8.21.08-15.83.29-23.14.52l5.35.9c-4.48-.35-8.96-.73-13.23-1.13l27.11-.59-7.65-1.2,21.02,1.36c7.91,2.01,13.32.44,15.72,2.36-4.11-.25-8.57-.5-11.92-.9Z"/>
    <path class="cls-1" d="M454.08,625.02c13.6,1.05,15.69-.1,31.04-.1,8.3.44-30.24,1.15-23.28,1.16l-21.43-.03,13.88-.44-.21-.59Z"/>
    <path class="cls-1" d="M1085.39,558.32l-10.67-1.15c7.8.26,14.48,1.18,21.58,1.19l29.97.04c-9.51.8-19.16.5-29.76.44l-14.99-.09-14.22.04c6.06-.98,9.95.2,18.09-.45Z"/>
    <path class="cls-1" d="M125.17,754.95c-2.75.31-9.53.5-14.49.68l18.92-2.81c4.56-.23,12.56-.37,18.5-.45l-11.06,1.24-11.86,1.33Z"/>
    <path class="cls-1" d="M95.51,494.6c-8.64-2.27,13.41-4.13,22.63-4.73-1.84.66-4.29.96-7,1.51l-15.64,3.21Z"/>
    <path class="cls-1" d="M61.91,649.45c5.95-1.76,36.69-.9,47,.04l-47-.04Z"/>
    <path class="cls-1" d="M1758.2,693.85c16.23-1.51,34.45-1.68,52.62-2.03l22.41-.43c-10.39,1.2-22.74,1.15-35.33.97l-39.7,1.49Z"/>
    <path class="cls-1" d="M471.35,686.63c-11.79.32-22.88.67-34.23.55l68.87-1.92c-10.49.97-22.47,1.04-34.64,1.38Z"/>
    <path class="cls-1" d="M240.65,541.39c10.35-.03,17.36,2.73,24.38,2.84l-8.83-2.54c7.53.58,10.61,1.75,14.04,3.34-8.5.11-22.71-1.89-29.58-3.64Z"/>
    <path class="cls-1" d="M1159.37,696.17c15.39-.72,30.1-.09,45.49-.38,8.66-.17,16.68-.31,24.8-.09l-25.3.73c-14.71.03-29.08.2-44.99-.25Z"/>
    <path class="cls-1" d="M853.38,599.54l-36.51-.36,87.39.02c-16.96.72-33.33.52-50.88.35Z"/>
    <path class="cls-1" d="M1188.37,557.1c13.27-.76,56.8-.18,63.67-.02-23.27.99-43.22-.25-63.67.02Z"/>
    <path class="cls-1" d="M86.24,562.31c5.93-1.08,12.76-1.69,20.71-1.96l25.14-.85c-14.46,1.24-28.68,2.12-45.85,2.82Z"/>
    <path class="cls-1" d="M717.12,665.37c3.87-.33,8.87-.71,13.54-.94,19.17-.95,36.97-2.01,57.98-2.66-18.99,1.17-46.38,2.73-71.52,3.6Z"/>
    <path class="cls-1" d="M786.55,614.3c-8.58.16-15.89.26-23.93.08,23.01-.75,45.97-1.27,70.63-.9-9.77.89-19.5.3-29.26.49l-17.43.33Z"/>
    <path class="cls-1" d="M121.74,765.04l-11.26.54c4.77-1.07,15.36-.55,17.72-2.11,9.03-.88,20.28-1.52,31.64-1.04-10.01.87-20.74.44-30.53,1.59l10.91-.02c-6.24.4-11.77.74-18.48,1.06Z"/>
    <path class="cls-1" d="M84.17,547.95c-5.25.02-19.59,1.68-23.44.67l15.74-.82c13.4-.69,28.38-.87,42.39-.02l-34.69.16Z"/>
    <path class="cls-1" d="M738.01,678.26c14.69-.52,28.31-.64,42.94-.81,6.03-.07,11.81-.35,18.14-.1-20.22.87-40.55,1.09-61.08.9Z"/>
    <path class="cls-1" d="M120.02,617.72c19.33.11,27.12-1.74,45.66-1.92-4.9.48-39.47,3.84-45.66,1.92Z"/>
    <path class="cls-1" d="M1831.98,558.73c-1.32,1.34-36.17,2.45-42.23,1.75l42.23-1.75Z"/>
    <path class="cls-1" d="M1375.7,691.43c-9.56.27-18.64.39-28.18.45,18.54-1.15,37.71-1.5,57.94-1.3l-29.76.84Z"/>
    <path class="cls-1" d="M1762.62,629.63l.59-1.77,4.38.09c1.57.03,2.86-.84,3.09-1.14l1-1.33c3.68.59,5.43,1.76,3.2,2.34-1.75.46-3.71.9-4.25,1.2-.63.34,2.16.98,3.72,1.44.1,0-2.39.1-2.64-.01l-1.26-.61c-.33-.16-2.38-.72-3.21-.64l-4.63.43Z"/>
    <path class="cls-1" d="M866.81,664.52c-11.39.72-32.72,2.03-46.19,2.36l23.81-1.51c14.38-.91,28.89-1.61,43.23-2.04-6.9.69-14.1.76-20.85,1.19Z"/>
    <path class="cls-1" d="M1544.53,628.9c3.28,1.13-43.92.51-47.73.04,15.9-.25,30.31-.26,47.73-.04Z"/>
    <path class="cls-1" d="M31.89,643.01l-9.41.53c9.94-1.99,24.59-2.08,37.11-1.26-9.32.47-17.12.55-27.7.73Z"/>
    <path class="cls-1" d="M409.53,610.37c2.78-.83,32.41-.55,39.33-.46l24.67.3c1.17.01,3.44-.06,3.29.07-.16.14-.47.37-.67.49s-3.09-.29-4.3-.3l-62.32-.1Z"/>
    <path class="cls-1" d="M568,633.87c-4.04.78-52.55,1.77-56.82,1.3,19.24-.6,36.73-1.29,56.82-1.3Z"/>
    <path class="cls-1" d="M101.71,714.68c-17.54,2.8-6.45,4.07-18.29,3.99-2.1-2.02,18.39-4.87,26.94-5.47-3.17.57-5.64,1-8.65,1.48Z"/>
    <path class="cls-1" d="M191.92,632.74l-28.94,1.74c10.24-1.86,22.66-2.34,35.76-2.63.24.75-2.93.65-6.82.89Z"/>
    <path class="cls-1" d="M242.48,532.32c-9.33,2.15-27.14,2.54-40.35,2.47l40.35-2.47Z"/>
    <path class="cls-1" d="M1786.26,587.63c-10.68-.24-38.1-2.38-44.05-3.31,16.63.64,30.73,1.87,44.05,3.31Z"/>
    <path class="cls-1" d="M1177.3,700.24c-8.02.24-15.82.77-23.39-.21,15.22-.29,30.01-.49,46.15-.48l-22.77.69Z"/>
    <path class="cls-1" d="M431.86,642.57c-3.63-.1-28.99-.83-27.82-1.15l1.94-.53,44.62,2.13c-6.49.28-12.46-.29-18.74-.45Z"/>
    <path class="cls-1" d="M1701.1,568.93c13.77.52,26.25,1.33,39.12,2.24l15.5,1.08c-19.72-.6-37.02-1.91-54.63-3.32Z"/>
    <path class="cls-1" d="M99.38,498.82c5.81-1.22,11.54-2.56,19.51-3.09l11.29-.75c-8.86,1.68-18.44,3.2-30.81,3.84Z"/>
    <path class="cls-1" d="M96.36,741.69c12.7-.4,24.34.23,35.4,1.13h-13.42c-6.29,0-14.27-.42-21.98-1.13Z"/>
    <path class="cls-1" d="M1654.69,629.45c21.05-.49,32.3-.45,53.53.31l-59.36-.03,1.33-.49c.36-.13,2.77.11,4.5.21Z"/>
    <path class="cls-1" d="M737.88,597.54c18.38.14,33.41.36,49.7.78-17.45.34-33.5.09-49.7-.78Z"/>
    <path class="cls-1" d="M604.67,609.76c8.51-.71,23.11.17,43.77.14.55,0,.58.19.35.28-1.88.73-38.14-.29-44.12-.43Z"/>
    <path class="cls-1" d="M1127.95,628.78l19.81-.4,32.56-.25c-17.02.76-34.41.92-52.37.64Z"/>
    <path class="cls-1" d="M121.53,615.69l8.13-.96-2.83,1.01,22.79-1.11-22.31,2.03c-1.36.08-4.82.18-6.18.18-1.69,0-1.02-.98.4-1.14Z"/>
    <path class="cls-1" d="M1475.77,623.58l-37.86.79,56.52-1.96c-6.12.48-12.11.82-18.66,1.17Z"/>
    <path class="cls-1" d="M598.34,672.21c2.6-.16,6.29.2,9.79.41,10.13.43,19.38.91,28.08,1.61-9.25.33-26.29-.99-37.87-2.02Z"/>
    <path class="cls-1" d="M1439.95,690.84c13.75-.2,27.66.7,44.08.67l16.82.44c-8.62.16-17.27.06-26.49-.11l-19.53-.37-14.87-.62Z"/>
    <path class="cls-1" d="M123.13,641.54c2.8-1.34,20.84-2.09,33.37-2.14l-33.37,2.14Z"/>
    <path class="cls-1" d="M1682.92,637.19c9.41-1.15,18.24-1.53,30.75-2.12-8.76,1.16-18.84,2.2-30.75,2.12Z"/>
    <path class="cls-1" d="M1085.07,607.21c11.31-.34,39.41-.92,52.61-.6-11.59.39-37.84,1.07-52.61.6Z"/>
    <path class="cls-1" d="M344.2,701.49c-3.98.35-24.92-2.56-26.92-3.7,8.92.7,19.5,2.32,26.92,3.7Z"/>
    <path class="cls-1" d="M1541.01,594.29c3.63.87-43.71-.79-40.65-1.58l40.65,1.58Z"/>
    <path class="cls-1" d="M59.87,783.16c4.39-1.1,11.64-1.46,18.95-1.44l15.04.04-24.17.96c-2.95.12-6.37.61-9.82.44Z"/>
    <path class="cls-1" d="M125.42,501.66c-.48-.3-17.52,3.03-25.85,2.61-.66-.03-1.37-.38-.77-.43l2.74-.27c7.37-.72,13.26-1.44,23.88-1.91Z"/>
    <path class="cls-1" d="M254.61,705.32c-3.52-.08-26.5-2.05-25.64-2.73,9.58.57,18.93,1,25.64,2.73Z"/>
    <path class="cls-1" d="M325.85,549.87c-9.03.87-20.12-1.5-27-2.97l27,2.97Z"/>
    <path class="cls-1" d="M375.46,556.96c-10.03-1.21-14.48.42-23.82.04l15.09-.78c4.04-.21,15.95-1.04,23.39-.84l-15.77,1.17c3.2.41,4.79.64,1.11.41Z"/>
    <path class="cls-1" d="M43.19,544.91c5.74-1.01,25.94-2.84,31.21-2.42-10.4.87-19.88,1.67-28.63,2.81-2.52-.24-5.72-.52-2.58-.39Z"/>
    <path class="cls-1" d="M547.89,687.63l27.95,1.55c2.64.15,6.63.65,8.95,1.01l-21.55-1.23c-5.36-.31-11.42-.13-15.36-1.32Z"/>
    <path class="cls-1" d="M95,526.29l-11.34.24c1.47-.61,5.49-1.46,8.88-1.82,3.92.36,3.9.47,10.06.45-10.65.77-2.16.5.55.94l-8.16.19Z"/>
    <path class="cls-1" d="M815.47,627.32c-11.72.61-32.07,1.38-42.93.65,14.44-.28,28.41-.67,42.93-.65Z"/>
    <path class="cls-1" d="M327.87,661.82l14.08,1.68c3.07.37,5.48.97,9.26,1.88-7.64-.42-13.76-1.36-19.11-2.59l-4.23-.97Z"/>
    <path class="cls-1" d="M619.9,601.41c-5.51.92-26.97-1.73-29.89-2.51l29.89,2.51Z"/>
    <path class="cls-1" d="M78.96,675.39c-.27.35-.16,1.17-1.03,1.13l-4.78-.18c-3.67-.14,4.11-2.81,25.65-2.06-7.11.29-13.69.57-19.84,1.11Z"/>
    <path class="cls-1" d="M1822.7,565.51l39.3-1.3c-11.56,1.21-25.72,1.56-39.3,1.3Z"/>
    <path class="cls-1" d="M125.62,777.62c.87-.42,6.89-1.04,10.3-.91l15.6.59c-8.83.57-14.2.48-25.91.32Z"/>
    <path class="cls-1" d="M826.61,700.37c12.1-.47,22.75-.78,34.83-1.01-10.92,1.11-22.82,1.35-34.83,1.01Z"/>
    <path class="cls-1" d="M816.82,595.57c7.02-.19,14.09.02,21.72.08l26.4.2c-4.62.68-9.48.4-15.18.29-11.14-.2-21.75.14-32.94-.58Z"/>
    <path class="cls-1" d="M1421.61,564.28l43.15.02c-14.34.71-28.9.85-43.15-.02Z"/>
    <path class="cls-1" d="M1769.95,565.63l38.17-.12c-13.2.97-26.09.79-38.17.12Z"/>
    <path class="cls-1" d="M454.46,585.31c7.7-.74,13.29.07,20.06.22l12.28.26c-10.44.4-21.29.22-32.34-.48Z"/>
    <path class="cls-1" d="M943.42,584.71c9.87-.27,18.6.13,27.69.65l7.19.41c-12.76-.03-23.54-.43-34.88-1.06Z"/>
    <path class="cls-1" d="M108.62,521.96l22.4-2.72c-4.71,1.54-12.23,2.73-22.4,2.72Z"/>
    <path class="cls-1" d="M621.6,611.92l-8.51-.79c3.45.03,6.98.15,9.58.39l20.09,1.81c-8.83.3-14.26-.77-21.16-1.41Z"/>
    <path class="cls-1" d="M751.95,687.52c6.72-1.12,13.65-.68,23.39-.77-5.88.84-14.25,1.05-23.39.77Z"/>
    <path class="cls-1" d="M1582.96,572.06l34.01,2.8c-13.64-.35-24.48-1.28-34.01-2.8Z"/>
    <path class="cls-1" d="M784.23,617.36c9.44-.36,18.9-.4,29.5-.51,7.21-.08,13.93-.25,21.52-.07-10.68.55-21.39.44-33.09.54-5.67.05-10.46.31-17.93.04Z"/>
    <path class="cls-1" d="M879.68,690.18l-3.13-1.38c8.87.48,15.71.92,23.16,1.69l-14.4-.39-1.38.38c-.51.14-3.86-.12-4.25-.29Z"/>
    <path class="cls-1" d="M286.99,721.6l10.55,1.81c1.9.33,4.45,1.16,5.71,1.58-9-.58-15.17-1.53-16.25-3.38Z"/>
    <path class="cls-1" d="M1160.29,660.96l-3.83.02c-.55,0-.62-.14-.33-.22.32-.09,2.4-.32,3.16-.32l24.97-.1c-7.94.65-15.54.6-23.96.64Z"/>
    <path class="cls-1" d="M69.16,634.02c7.27-.75,14.52-.75,22.64-.45-6.91.71-14.98.89-22.64.45Z"/>
    <path class="cls-1" d="M636.62,583.34c5.28-.11,11.54-.06,17.81.17l31.41,1.16c-16.75-.12-31.33-.69-49.21-1.33Z"/>
    <path class="cls-1" d="M1114.51,696.62c2.71-.18,8.07-.51,11.08-.5l28.47.11c-15.41.57-21.63.66-39.55.39Z"/>
    <path class="cls-1" d="M1057.05,575.14c7.4.94-41.36-1.88-35.36-2.24l35.36,2.24Z"/>
    <path class="cls-1" d="M84.35,730.98c7.42-.75,16.15-1.08,25.07-.74-8.61.51-15.4.67-25.07.74Z"/>
    <path class="cls-1" d="M218.46,631.11c5.58-1.2,14.96-1.77,25.01-1.57-7.59.6-14.78,1.16-25.01,1.57Z"/>
    <path class="cls-1" d="M116.49,780.11c7.61-.73,15.68-.59,23.41-.02-8.14.26-15.23.29-23.41.02Z"/>
    <path class="cls-1" d="M281,735.52l18.48-.93,10.25-.63c-7.48,1.61-18.7,1.64-28.74,1.56Z"/>
    <path class="cls-1" d="M649.34,694.25c-7.9.6-14.8,1.21-23.28.97,9.51-.81,18.81-1.33,30.05-1.37l-6.78.4Z"/>
    <path class="cls-1" d="M670.55,593.67c4.22-.09,7.62.05,11.26.24l25.5,1.36c-13.62-.08-25.35-.63-36.76-1.61Z"/>
    <path class="cls-1" d="M302.23,721.17l20.32,1.51c2.75-.4,5.89-.75,9.37-.91l-2.94.54,20.18,1.05c-5.47,1.27-25.39-1.97-24.66-.11-8.64-.52-16.12-.95-22.27-2.1Z"/>
    <path class="cls-1" d="M732.06,558.14c7.16.59,13.4,1.26,18.23,2l8.84,1.35c-10.03-.91-19.23-2.01-27.07-3.35Z"/>
    <path class="cls-1" d="M355.03,663.45c-5.47-.96-5.36-2.26-4.22-3.28,4.42,1.16,8,2.09,4.22,3.28Z"/>
    <path class="cls-1" d="M431.1,709.74c5.23-.46,7.74-.53,10.76-1.57l4.97.4c4.01-.41,7.21-.66,12.08-.51l-13.4,1.15c-4.3.37-9.97.55-14.41.53Z"/>
    <path class="cls-1" d="M267.81,659.63c8.05-.48,15.73-.37,23.51.36-8.55.31-15.48.09-23.51-.36Z"/>
    <path class="cls-1" d="M351.45,652.17c9.36-.13-41.38,3.13-35.29,2.08,12-.8,22.19-1.5,35.29-2.08Z"/>
    <path class="cls-1" d="M316.02,695.55c8.98.09-37.92,3.18-33.51,2.57,10.9-1.13,21.77-1.84,33.51-2.57Z"/>
    <path class="cls-1" d="M1092.9,686.6l15.25-.42c6.44-.18,14.13-.06,21.34.12-11.8.47-23.65.53-36.6.3Z"/>
    <path class="cls-1" d="M1050.64,661.41l-.23-.84c-.07-.25-1.8-.47-3.22-.73l21.46.7-11.92.29c-1.57.04-4.28.35-6.1.58Z"/>
    <path class="cls-1" d="M516.94,670.92c11.23-.68,23.54-.93,36.08-.78-11.92.58-21.57.76-36.08.78Z"/>
    <path class="cls-1" d="M627.13,685.11l13.84.27c1.81.04,4.32.77,4.07,1.13-6.1.07-10.1-.33-17.91-1.39Z"/>
    <path class="cls-1" d="M51.95,644.37c5.91-1.31,15.36-1.8,24.2-1.22l-24.2,1.22Z"/>
    <path class="cls-1" d="M808.91,633.23l-8.6-.47c9.35-.17,17.17.04,26.97.53-5.46.43-12.2.28-18.37-.06Z"/>
    <path class="cls-1" d="M599.61,673.35l15.84.95c3.65.22,8.62.07,9.69,1.01-9.63-.5-17.81-.65-25.52-1.96Z"/>
    <path class="cls-1" d="M1868.49,697.88c10.4-.75,20.81-1.14,31.96-1.28-10.56.93-20.69,1.41-31.96,1.28Z"/>
    <path class="cls-1" d="M1602.67,626.62l10.01-.52c7.53-.34,14.8-.57,22.94-.53l-18.17.75c-4.9.26-9.48.39-14.79.3Z"/>
    <path class="cls-1" d="M1410.08,561.17c10.46.36,19.13,1.08,28.91,1.96-10.45-.37-20.14-.84-28.91-1.96Z"/>
    <path class="cls-1" d="M115.39,501.28c-3.36.4-7.62.75-11.82,1.11,6.27-1.21,12.54-1.89,21.53-2.83.47-.61,1.04-.36,1.98.33l-11.7,1.39Z"/>
    <path class="cls-1" d="M69.66,637.42c-1.26-1.31,20.75-2.19,23.97-1.35l-19.68.67,1.36.68c.18.09.36.36-.16.33l-5.48-.33Z"/>
    <path class="cls-1" d="M1338.13,665.4c-15.83.77-17.61.6-34.84,0h34.84Z"/>
    <path class="cls-1" d="M1833.11,587.18c10.13.14,17.53.54,24.3,1.36-9.19-.09-16.91-.67-24.3-1.36Z"/>
    <path class="cls-1" d="M524.67,624.72l-16.73-.12,24.09-.67c2.37-.07,6.88.11,10.7.25l-4.5.46c-.99.1-3.49-.35-4.54-.39-2.03.09-6.88.49-9.03.48Z"/>
    <path class="cls-1" d="M347.59,700c-8.36-.64-12.53-.75-14.38-2.14,5.1.41,10.54,1.14,14.41,1.82-.07.63-.08.8-.03.32Z"/>
    <path class="cls-1" d="M374.99,716.61l8.13-.51c4.87-.31,10-.6,14.65-.1-7.75.41-13.72.54-22.78.61Z"/>
    <path class="cls-1" d="M116.06,599.46c-.92.14-3.64.41-4.7.5-.94.08-1.35-.37-1.58-.63l16.87-1.53-10.59,1.65Z"/>
    <path class="cls-1" d="M69.06,717.12c-.58-1.53,8.56-2.02,14.43-2.76,2.61-.16,4.91-.24,1.91.12-7.26.56-11.11,1.35-16.34,2.63Z"/>
    <path class="cls-1" d="M1581.13,629.53l21.45-1.31c-5.6,1.2-13.57,1.49-21.45,1.31Z"/>
    <path class="cls-1" d="M121.86,692.68l-8.56.53c6.38-1.1,14.14-1.59,23.45-1.67-4.87.45-9.57.81-14.89,1.14Z"/>
    <path class="cls-1" d="M104.96,770.04l-8.21,1.03c2.93-1.75,12.44-2.34,22.08-2.63l-13.86,1.6Z"/>
    <path class="cls-1" d="M149.88,729.85c6.39-.89,13.17-1.27,21.13-1.39-6.61.69-12.96,1.29-21.13,1.39Z"/>
    <path class="cls-1" d="M1693.98,609.66c-7.57.4-11.78-1-25.49-1.71,7.99.14,15.55.86,25.49,1.71Z"/>
    <path class="cls-1" d="M200.34,594.82c9.25.59,17.07,1.3,25.37,2.39-9.32-.29-17.87-1.09-25.37-2.39Z"/>
    <path class="cls-1" d="M382.02,717.99c6.13-.89,13.23-.55,19.21-.15-6.91.18-12.77.22-19.21.15Z"/>
    <path class="cls-1" d="M209.02,714.73c5.92-1.09,13.76-1.41,22.58-2.23,1.41-.67,1.46-.29,1.17.34-7.49.71-14.53,1.43-23.75,1.9Z"/>
    <path class="cls-1" d="M314.47,554.23c-8.04-1.12,25.5,2.24,21.28,2.28-7.83-.57-13-1.06-21.28-2.28Z"/>
    <path class="cls-1" d="M171.61,585.05l-3.85-.33c-.65-.06.3-.53.92-.46,9.55,1.08.41.87,13.26,3.66-8.7,0-7.33-1.86-10.32-2.86Z"/>
    <path class="cls-1" d="M573.68,688.08c8.17.09,15.89.63,23.58,1.28-8.48-.21-15.86-.6-23.58-1.28Z"/>
    <path class="cls-1" d="M1385.36,615.55c9.91-.81,19.55-1.13,30.14-1.3-9.62.72-19.12,1.18-30.14,1.3Z"/>
    <path class="cls-1" d="M612.16,675.11c5.59.98-32.67-1.36-25.44-1.72l25.44,1.72Z"/>
    <path class="cls-1" d="M985.11,554.96c11.05.34,19.17.99,27.68,1.79-10.54-.11-19.41-.92-27.68-1.79Z"/>
    <path class="cls-1" d="M1523.66,576.29l-9.91-.43c7.12-.29,14.5-.14,21.74.42-4.35.29-7.76.18-11.84,0Z"/>
    <path class="cls-1" d="M1562.42,562.32c1.51-.86,50.83-.65,54.39.02l-54.39-.02Z"/>
    <path class="cls-1" d="M1401.76,556.15l-98.95-.1c-10.63-.01-20.67-.25-31.9-.57l54.9-.99c11.4-.21,23.15.28,34.45.25,12.69-.02,24.57-.19,36.9-.13l55.27.28c12.25.06,23.91.3,36.12.3,23.83,0,46.27.03,70.03.43-11.27.71-21.86.56-33.21.42-8.97-.11-17.84.17-26.96.17h-92.83c8.24.44,15.95.41,26.62.55-4.57.34-11.28.55-17.37.43l-21.69-.44,8.63-.6Z"/>
    <path class="cls-1" d="M1696.35,556.15l-98.95-.1c-10.63-.01-20.67-.25-31.9-.57l54.9-.99c11.4-.21,23.15.28,34.45.25,12.69-.02,24.57-.19,36.9-.13l55.27.28c12.25.06,23.91.3,36.12.3,23.83,0,46.27.03,70.03.43-11.27.71-21.86.56-33.21.42-8.97-.11-17.84.17-26.96.17h-92.83c8.24.44,15.95.41,26.62.55-4.57.34-11.28.55-17.37.43l-21.69-.44,8.63-.6Z"/>
  </g>
  <line class="cls-1" x1="866.02" y1="61.38" x2="975" y2="62.25"/>
  <line class="cls-1" x1="733.76" x2="842.74" y2=".87"/>
</svg>